tgl0_16.sfdir
StartChar: numbersign
Encoding: 35 35 63
Width: 2359
Flags: W
LayerCount: 2
Back
Fore
SplineSet
303 1194 m 1,0,-1
 351 1376 l 2,1,2
 371 1454 371 1454 439 1454 c 0,3,4
 457 1454 457 1454 477.5 1448.5 c 128,-1,5
 498 1443 498 1443 517 1429 c 1,6,7
 576 1452 576 1452 633 1452 c 0,8,9
 684 1452 684 1452 726.5 1435.5 c 128,-1,10
 769 1419 769 1419 803 1388 c 1,11,12
 894 1452 894 1452 996 1452 c 0,13,14
 1048 1452 1048 1452 1092.5 1433.5 c 128,-1,15
 1137 1415 1137 1415 1169.5 1383 c 128,-1,16
 1202 1351 1202 1351 1220.5 1308 c 128,-1,17
 1239 1265 1239 1265 1239 1215 c 0,18,19
 1239 1175 1239 1175 1229 1140 c 2,20,-1
 1148 838 l 2,21,22
 1137 798 1137 798 1116 778.5 c 128,-1,23
 1095 759 1095 759 1060 759 c 0,24,25
 1002 759 1002 759 971.5 787 c 128,-1,26
 941 815 941 815 941 851 c 0,27,28
 941 869 941 869 947 891 c 2,29,-1
 1029 1194 l 2,30,31
 1032 1204 1032 1204 1032 1215 c 0,32,33
 1032 1229 1032 1229 1024 1237 c 128,-1,34
 1016 1245 1016 1245 996 1245 c 256,35,36
 976 1245 976 1245 955 1235.5 c 128,-1,37
 934 1226 934 1226 915.5 1211.5 c 128,-1,38
 897 1197 897 1197 884 1178 c 128,-1,39
 871 1159 871 1159 866 1140 c 2,40,-1
 785 838 l 2,41,42
 763 759 763 759 698 759 c 0,43,44
 640 759 640 759 609.5 786.5 c 128,-1,45
 579 814 579 814 579 851 c 0,46,47
 579 869 579 869 585 891 c 2,48,-1
 666 1194 l 2,49,50
 668 1204 668 1204 668 1215 c 0,51,52
 668 1228 668 1228 661 1236.5 c 128,-1,53
 654 1245 654 1245 633 1245 c 0,54,55
 611 1245 611 1245 590 1235 c 128,-1,56
 569 1225 569 1225 551 1210 c 128,-1,57
 533 1195 533 1195 520 1176.5 c 128,-1,58
 507 1158 507 1158 503 1140 c 2,59,-1
 422 838 l 2,60,61
 411 798 411 798 390 778.5 c 128,-1,62
 369 759 369 759 334 759 c 0,63,64
 276 759 276 759 245.5 787 c 128,-1,65
 215 815 215 815 215 851 c 0,66,67
 215 869 215 869 221 891 c 2,68,-1
 303 1194 l 1,0,-1
602 28 m 2,69,70
 565 -5 565 -5 531 -5 c 0,71,72
 513 -5 513 -5 494 5.5 c 128,-1,73
 475 16 475 16 459 32 c 128,-1,74
 443 48 443 48 433 67.5 c 128,-1,75
 423 87 423 87 423 105 c 0,76,77
 423 142 423 142 464 180 c 2,78,-1
 1828 1425 l 1,79,80
 1866 1458 1866 1458 1900 1458 c 0,81,82
 1917 1458 1917 1458 1936.5 1447.5 c 128,-1,83
 1956 1437 1956 1437 1971 1420.5 c 128,-1,84
 1986 1404 1986 1404 1996.5 1384.5 c 128,-1,85
 2007 1365 2007 1365 2007 1347 c 0,86,87
 2007 1308 2007 1308 1967 1273 c 1,88,-1
 1352 711 l 1,89,90
 1377 726 1377 726 1404 726 c 0,91,92
 1421 726 1421 726 1440 720 c 128,-1,93
 1459 714 1459 714 1475 701 c 1,94,95
 1540 726 1540 726 1601 726 c 0,96,97
 1655 726 1655 726 1701.5 707.5 c 128,-1,98
 1748 689 1748 689 1783 654 c 1,99,100
 1878 726 1878 726 1990 726 c 0,101,102
 2044 726 2044 726 2090.5 707 c 128,-1,103
 2137 688 2137 688 2170.5 654 c 128,-1,104
 2204 620 2204 620 2223.5 575 c 128,-1,105
 2243 530 2243 530 2243 479 c 0,106,107
 2243 444 2243 444 2232 401 c 2,108,-1
 2145 77 l 2,109,110
 2125 -1 2125 -1 2056 -1 c 0,111,112
 1998 -1 1998 -1 1968.5 26.5 c 128,-1,113
 1939 54 1939 54 1939 90 c 0,114,115
 1939 108 1939 108 1945 131 c 2,116,-1
 2032 455 l 2,117,118
 2035 467 2035 467 2035 479 c 0,119,120
 2035 497 2035 497 2025.5 508 c 128,-1,121
 2016 519 2016 519 1990 519 c 0,122,123
 1967 519 1967 519 1943.5 508.5 c 128,-1,124
 1920 498 1920 498 1899.5 482 c 128,-1,125
 1879 466 1879 466 1864 444.5 c 128,-1,126
 1849 423 1849 423 1844 401 c 2,127,-1
 1756 77 l 2,128,129
 1735 -1 1735 -1 1667 -1 c 0,130,131
 1609 -1 1609 -1 1579.5 26.5 c 128,-1,132
 1550 54 1550 54 1550 90 c 0,133,134
 1550 108 1550 108 1556 131 c 2,135,-1
 1643 455 l 2,136,137
 1646 467 1646 467 1646 479 c 0,138,139
 1646 497 1646 497 1636 508 c 128,-1,140
 1626 519 1626 519 1601 519 c 0,141,142
 1577 519 1577 519 1553.5 508.5 c 128,-1,143
 1530 498 1530 498 1510 481.5 c 128,-1,144
 1490 465 1490 465 1475 444.5 c 128,-1,145
 1460 424 1460 424 1454 402 c 2,146,-1
 1367 77 l 2,147,148
 1346 -1 1346 -1 1278 -1 c 0,149,150
 1221 -1 1221 -1 1191.5 26 c 128,-1,151
 1162 53 1162 53 1162 90 c 0,152,153
 1162 108 1162 108 1167 131 c 1,154,-1
 1306 650 l 2,155,156
 1309 661 1309 661 1323 685 c 1,157,-1
 602 28 l 2,69,70
EndSplineSet
EndChar
StartChar: parenright
Encoding: 41 41 68
Width: 429
Flags: W
LayerCount: 2
Back
Fore
SplineSet
364 1414 m 0,0,1
 353 1442 353 1442 353 1463 c 0,2,3
 353 1480 353 1480 361.5 1496.5 c 128,-1,4
 370 1513 370 1513 385 1527 c 128,-1,5
 400 1541 400 1541 422 1550 c 128,-1,6
 444 1559 444 1559 472 1559 c 0,7,8
 529 1559 529 1559 556 1490 c 0,9,10
 654 1243 654 1243 654 990 c 0,11,12
 654 709 654 709 536 420.5 c 128,-1,13
 418 132 418 132 179 -167 c 0,14,15
 143 -212 143 -212 101 -212 c 0,16,17
 82 -212 82 -212 61.5 -202 c 128,-1,18
 41 -192 41 -192 25 -176.5 c 128,-1,19
 9 -161 9 -161 -1.5 -142.5 c 128,-1,20
 -12 -124 -12 -124 -12 -106 c 0,21,22
 -12 -75 -12 -75 17 -38 c 0,23,24
 230 230 230 230 338 486 c 128,-1,25
 446 742 446 742 446 988 c 0,26,27
 446 1203 446 1203 364 1414 c 0,0,1
EndSplineSet
EndChar
StartChar: plus
Encoding: 43 43 69
Width: 748
Flags: W
LayerCount: 2
Back
Fore
SplineSet
390 650 m 2,0,1
 411 727 411 727 479 727 c 0,2,3
 536 727 536 727 566 699 c 128,-1,4
 596 671 596 671 596 634 c 0,5,6
 596 616 596 616 590 596 c 2,7,-1
 569 519 l 1,8,-1
 642 519 l 2,9,10
 746 519 746 519 746 415 c 0,11,12
 746 312 746 312 642 312 c 2,13,-1
 514 312 l 1,14,-1
 479 181 l 1,15,16
 456 101 456 101 391 101 c 0,17,18
 332 101 332 101 302 129 c 128,-1,19
 272 157 272 157 272 194 c 0,20,21
 272 211 272 211 278 234 c 2,22,-1
 299 312 l 1,23,-1
 227 312 l 2,24,25
 123 312 123 312 123 415 c 0,26,27
 123 519 123 519 227 519 c 2,28,-1
 355 519 l 1,29,-1
 390 650 l 2,0,1
EndSplineSet
EndChar
StartChar: hyphen
Encoding: 45 45 71
Width: 1034
Flags: W
LayerCount: 2
Back
Fore
SplineSet
187 312 m 2,0,1
 83 312 83 312 83 415 c 0,2,3
 83 519 83 519 187 519 c 2,4,-1
 881 519 l 2,5,6
 985 519 985 519 985 415 c 0,7,8
 985 312 985 312 881 312 c 2,9,-1
 187 312 l 2,0,1
EndSplineSet
EndChar
StartChar: period
Encoding: 46 46 58
Width: 490
Flags: W
LayerCount: 2
Back
Fore
SplineSet
322 79 m 2,0,1
 296 4 296 4 221 4 c 0,2,3
 196 4 196 4 176.5 12.5 c 128,-1,4
 157 21 157 21 144.5 34.5 c 128,-1,5
 132 48 132 48 125.5 65.5 c 128,-1,6
 119 83 119 83 119 100 c 256,7,8
 119 117 119 117 123 133 c 1,9,-1
 123 135 l 1,10,11
 151 210 151 210 224 210 c 0,12,13
 250 210 250 210 269 201.5 c 128,-1,14
 288 193 288 193 300.5 178.5 c 128,-1,15
 313 164 313 164 319 146 c 128,-1,16
 325 128 325 128 325 109 c 0,17,18
 325 102 325 102 325 95.5 c 128,-1,19
 325 89 325 89 323 82 c 2,20,-1
 322 79 l 2,0,1
EndSplineSet
EndChar
StartChar: zero
Encoding: 48 48 73
Width: 1164
Flags: W
LayerCount: 2
Back
Fore
SplineSet
875 1452 m 0,0,1
 953 1452 953 1452 1017 1418 c 128,-1,2
 1081 1384 1081 1384 1126.5 1321 c 128,-1,3
 1172 1258 1172 1258 1197 1171 c 128,-1,4
 1222 1084 1222 1084 1222 979 c 0,5,6
 1222 863 1222 863 1194.5 745.5 c 128,-1,7
 1167 628 1167 628 1119.5 519.5 c 128,-1,8
 1072 411 1072 411 1006.5 316 c 128,-1,9
 941 221 941 221 865.5 151 c 128,-1,10
 790 81 790 81 707 40.5 c 128,-1,11
 624 0 624 0 540 0 c 0,12,13
 463 0 463 0 399 33.5 c 128,-1,14
 335 67 335 67 289.5 129 c 128,-1,15
 244 191 244 191 219 278.5 c 128,-1,16
 194 366 194 366 194 474 c 0,17,18
 194 588 194 588 221 705 c 128,-1,19
 248 822 248 822 295 930.5 c 128,-1,20
 342 1039 342 1039 407 1134 c 128,-1,21
 472 1229 472 1229 547.5 1300 c 128,-1,22
 623 1371 623 1371 706 1411.5 c 128,-1,23
 789 1452 789 1452 875 1452 c 0,0,1
902 1241 m 1,24,25
 893 1245 893 1245 875 1245 c 0,26,27
 823 1245 823 1245 767 1211.5 c 128,-1,28
 711 1178 711 1178 658.5 1120.5 c 128,-1,29
 606 1063 606 1063 559.5 987 c 128,-1,30
 513 911 513 911 477.5 825.5 c 128,-1,31
 442 740 442 740 421.5 649.5 c 128,-1,32
 401 559 401 559 401 474 c 0,33,34
 401 414 401 414 411 364.5 c 128,-1,35
 421 315 421 315 439 280.5 c 128,-1,36
 457 246 457 246 482.5 226.5 c 128,-1,37
 508 207 508 207 540 207 c 0,38,39
 592 207 592 207 647 240.5 c 128,-1,40
 702 274 702 274 754.5 331 c 128,-1,41
 807 388 807 388 854 464 c 128,-1,42
 901 540 901 540 937 626 c 128,-1,43
 973 712 973 712 993.5 802.5 c 128,-1,44
 1014 893 1014 893 1014 979 c 0,45,46
 1014 1085 1014 1085 984 1155 c 128,-1,47
 954 1225 954 1225 902 1241 c 1,24,25
EndSplineSet
EndChar
StartChar: one
Encoding: 49 49 74
Width: 689
Flags: W
LayerCount: 2
Back
Fore
SplineSet
492 74 m 2,0,1
 472 -4 472 -4 403 -4 c 0,2,3
 345 -4 345 -4 315.5 23.5 c 128,-1,4
 286 51 286 51 286 87 c 0,5,6
 286 105 286 105 292 128 c 2,7,-1
 544 1071 l 1,8,-1
 527 1056 l 1,9,10
 510 1043 510 1043 492 1036 c 128,-1,11
 474 1029 474 1029 458 1029 c 0,12,13
 441 1029 441 1029 422.5 1039.5 c 128,-1,14
 404 1050 404 1050 388.5 1066 c 128,-1,15
 373 1082 373 1082 363.5 1102 c 128,-1,16
 354 1122 354 1122 354 1142 c 0,17,18
 354 1184 354 1184 399 1220 c 2,19,-1
 661 1427 l 2,20,21
 690 1450 690 1450 723 1450 c 0,22,23
 750 1450 750 1450 770 1442 c 128,-1,24
 790 1434 790 1434 804 1420.5 c 128,-1,25
 818 1407 818 1407 824.5 1391 c 128,-1,26
 831 1375 831 1375 831 1357 c 256,27,28
 831 1339 831 1339 825 1319 c 2,29,-1
 492 74 l 2,0,1
EndSplineSet
EndChar
StartChar: two
Encoding: 50 50 75
Width: 1025
Flags: W
LayerCount: 2
Back
Fore
SplineSet
833 207 m 2,0,1
 938 207 938 207 938 104 c 0,2,3
 938 0 938 0 833 0 c 2,4,-1
 214 0 l 2,5,6
 111 0 111 0 111 104 c 0,7,8
 111 152 111 152 147 183 c 1,9,-1
 902 925 l 2,10,11
 946 968 946 968 970.5 1016 c 128,-1,12
 995 1064 995 1064 995 1117 c 0,13,14
 995 1178 995 1178 958 1211.5 c 128,-1,15
 921 1245 921 1245 859 1245 c 0,16,17
 821 1245 821 1245 782.5 1232 c 128,-1,18
 744 1219 744 1219 708.5 1196 c 128,-1,19
 673 1173 673 1173 643.5 1142.5 c 128,-1,20
 614 1112 614 1112 594 1078 c 0,21,22
 561 1022 561 1022 512 1022 c 0,23,24
 488 1022 488 1022 467 1031.5 c 128,-1,25
 446 1041 446 1041 430 1055 c 128,-1,26
 414 1069 414 1069 404 1086.5 c 128,-1,27
 394 1104 394 1104 394 1120 c 0,28,29
 394 1151 394 1151 414 1187 c 128,-1,30
 434 1223 434 1223 465 1258.5 c 128,-1,31
 496 1294 496 1294 533.5 1325 c 128,-1,32
 571 1356 571 1356 604 1377 c 0,33,34
 726 1452 726 1452 859 1452 c 0,35,36
 930 1452 930 1452 992 1427.5 c 128,-1,37
 1054 1403 1054 1403 1101 1358.5 c 128,-1,38
 1148 1314 1148 1314 1175.5 1252.5 c 128,-1,39
 1203 1191 1203 1191 1203 1117 c 0,40,41
 1203 1074 1203 1074 1192.5 1029.5 c 128,-1,42
 1182 985 1182 985 1162 940.5 c 128,-1,43
 1142 896 1142 896 1113 854.5 c 128,-1,44
 1084 813 1084 813 1048 776 c 1,45,-1
 468 207 l 1,46,-1
 833 207 l 2,0,1
EndSplineSet
EndChar
StartChar: nine
Encoding: 57 57 82
Width: 1084
Flags: W
LayerCount: 2
Back
Fore
SplineSet
170 216 m 0,0,1
 167 232 167 232 167 246 c 0,2,3
 167 287 167 287 196 314 c 128,-1,4
 225 341 225 341 282 341 c 0,5,6
 354 341 354 341 372 257 c 0,7,8
 378 232 378 232 410 219.5 c 128,-1,9
 442 207 442 207 483 207 c 0,10,11
 527 207 527 207 577.5 230.5 c 128,-1,12
 628 254 628 254 679 298 c 128,-1,13
 730 342 730 342 779 405 c 128,-1,14
 828 468 828 468 870 547 c 1,15,16
 779 518 779 518 666 518 c 0,17,18
 580 518 580 518 508 542.5 c 128,-1,19
 436 567 436 567 384.5 613.5 c 128,-1,20
 333 660 333 660 304.5 726.5 c 128,-1,21
 276 793 276 793 276 877 c 0,22,23
 276 945 276 945 293 1011 c 128,-1,24
 310 1077 310 1077 338.5 1136 c 128,-1,25
 367 1195 367 1195 406 1245.5 c 128,-1,26
 445 1296 445 1296 491 1334 c 0,27,28
 635 1452 635 1452 835 1452 c 0,29,30
 920 1452 920 1452 987.5 1424 c 128,-1,31
 1055 1396 1055 1396 1102.5 1342.5 c 128,-1,32
 1150 1289 1150 1289 1175.5 1211 c 128,-1,33
 1201 1133 1201 1133 1201 1033 c 0,34,35
 1201 961 1201 961 1188.5 878 c 128,-1,36
 1176 795 1176 795 1151 700 c 1,37,38
 1125 606 1125 606 1085.5 517.5 c 128,-1,39
 1046 429 1046 429 995 351.5 c 128,-1,40
 944 274 944 274 884.5 209 c 128,-1,41
 825 144 825 144 759 98 c 128,-1,42
 693 52 693 52 623 26 c 128,-1,43
 553 0 553 0 483 0 c 0,44,45
 424 0 424 0 370.5 15 c 128,-1,46
 317 30 317 30 276 58 c 128,-1,47
 235 86 235 86 207.5 126.5 c 128,-1,48
 180 167 180 167 170 216 c 0,0,1
984 912 m 0,49,50
 994 970 994 970 994 1033 c 0,51,52
 994 1141 994 1141 958.5 1193 c 128,-1,53
 923 1245 923 1245 835 1245 c 0,54,55
 707 1245 707 1245 619 1171.5 c 128,-1,56
 531 1098 531 1098 493 958 c 0,57,58
 488 939 488 939 485.5 920.5 c 128,-1,59
 483 902 483 902 483 882 c 0,60,61
 483 805 483 805 527 765 c 128,-1,62
 571 725 571 725 655 725 c 0,63,64
 707 725 707 725 755.5 732.5 c 128,-1,65
 804 740 804 740 846.5 760.5 c 128,-1,66
 889 781 889 781 924 817 c 128,-1,67
 959 853 959 853 983 909 c 1,68,-1
 983 910 l 2,69,70
 983 911 983 911 983.5 911 c 128,-1,71
 984 911 984 911 984 912 c 0,49,50
EndSplineSet
EndChar
StartChar: colon
Encoding: 58 58 59
Width: 535
Flags: W
LayerCount: 2
Back
Fore
SplineSet
367 79 m 1,0,1
 346 0 346 0 278 0 c 0,2,3
 250 0 250 0 228 8 c 128,-1,4
 206 16 206 16 191.5 29 c 128,-1,5
 177 42 177 42 169 59 c 128,-1,6
 161 76 161 76 161 94 c 256,7,8
 161 112 161 112 167 133 c 1,9,-1
 167 135 l 1,10,11
 189 214 189 214 255 214 c 0,12,13
 313 214 313 214 343 186.5 c 128,-1,14
 373 159 373 159 373 122 c 0,15,16
 373 103 373 103 368 82 c 1,17,-1
 367 79 l 1,0,1
603 950 m 0,18,19
 583 872 583 872 514 872 c 0,20,21
 457 872 457 872 427.5 900 c 128,-1,22
 398 928 398 928 398 965 c 0,23,24
 398 1025 398 1025 425 1056 c 128,-1,25
 452 1087 452 1087 490 1087 c 0,26,27
 548 1087 548 1087 577.5 1057.5 c 128,-1,28
 607 1028 607 1028 607 987 c 0,29,30
 607 967 607 967 603 950 c 0,18,19
EndSplineSet
EndChar
StartChar: semicolon
Encoding: 59 59 60
Width: 535
Flags: W
LayerCount: 2
Back
Fore
SplineSet
603 950 m 0,0,1
 583 872 583 872 514 872 c 0,2,3
 457 872 457 872 427.5 900 c 128,-1,4
 398 928 398 928 398 965 c 0,5,6
 398 1025 398 1025 425 1056 c 128,-1,7
 452 1087 452 1087 490 1087 c 0,8,9
 548 1087 548 1087 577.5 1057.5 c 128,-1,10
 607 1028 607 1028 607 987 c 1,11,12
 606 979 606 979 605.5 969.5 c 128,-1,13
 605 960 605 960 603 950 c 0,0,1
304 -148 m 2,14,15
 282 -227 282 -227 214 -227 c 0,16,17
 157 -227 157 -227 127.5 -199 c 128,-1,18
 98 -171 98 -171 98 -134 c 0,19,20
 98 -116 98 -116 104 -95 c 2,21,-1
 168 138 l 2,22,23
 189 215 189 215 257 215 c 0,24,25
 314 215 314 215 343.5 187.5 c 128,-1,26
 373 160 373 160 373 122 c 0,27,28
 373 113 373 113 372 103.5 c 128,-1,29
 371 94 371 94 369 84 c 2,30,-1
 304 -148 l 2,14,15
EndSplineSet
EndChar
StartChar: equal
Encoding: 61 61 83
Width: 1062
Flags: W
LayerCount: 2
Back
Fore
SplineSet
103 104 m 1,0,1
 50 105 50 105 25 130.5 c 128,-1,2
 0 156 0 156 0 207 c 1,3,4
 5 311 5 311 103 312 c 1,5,-1
 797 312 l 2,6,7
 901 312 901 312 901 207 c 0,8,9
 901 104 901 104 797 104 c 2,10,-1
 103 104 l 1,0,1
214 518 m 2,11,12
 112 518 112 518 111 622 c 1,13,14
 115 722 115 722 214 725 c 1,15,-1
 909 725 l 2,16,17
 959 725 959 725 985.5 699.5 c 128,-1,18
 1012 674 1012 674 1012 622 c 0,19,20
 1012 571 1012 571 985.5 545.5 c 128,-1,21
 959 520 959 520 909 518 c 1,22,-1
 214 518 l 2,11,12
EndSplineSet
EndChar
StartChar: at
Encoding: 64 64 184
Width: 1318
Flags: W
LayerCount: 2
Back
Fore
SplineSet
1009 1103 m 1,0,1
 1041 1143 1041 1143 1087 1143 c 0,2,3
 1113 1143 1113 1143 1134 1135 c 128,-1,4
 1155 1127 1155 1127 1168.5 1114 c 128,-1,5
 1182 1101 1182 1101 1189 1084.5 c 128,-1,6
 1196 1068 1196 1068 1196 1051 c 0,7,8
 1196 1032 1196 1032 1190 1011 c 2,9,-1
 1056 534 l 1,10,11
 1096 548 1096 548 1126.5 575.5 c 128,-1,12
 1157 603 1157 603 1180 639 c 128,-1,13
 1203 675 1203 675 1218 716.5 c 128,-1,14
 1233 758 1233 758 1243 800 c 128,-1,15
 1253 842 1253 842 1257 882 c 128,-1,16
 1261 922 1261 922 1261 955 c 0,17,18
 1261 1099 1261 1099 1183 1172 c 128,-1,19
 1105 1245 1105 1245 937 1245 c 0,20,21
 848 1245 848 1245 765.5 1214 c 128,-1,22
 683 1183 683 1183 611 1130 c 128,-1,23
 539 1077 539 1077 480 1008 c 128,-1,24
 421 939 421 939 378 861.5 c 128,-1,25
 335 784 335 784 312 705 c 128,-1,26
 289 626 289 626 289 554 c 0,27,28
 289 475 289 475 311 410.5 c 128,-1,29
 333 346 333 346 374.5 301 c 128,-1,30
 416 256 416 256 474 231.5 c 128,-1,31
 532 207 532 207 603 207 c 0,32,33
 673 207 673 207 744.5 229 c 128,-1,34
 816 251 816 251 890 298 c 1,35,36
 924 318 924 318 953 318 c 0,37,38
 970 318 970 318 987.5 308.5 c 128,-1,39
 1005 299 1005 299 1020 282.5 c 128,-1,40
 1035 266 1035 266 1044.5 245 c 128,-1,41
 1054 224 1054 224 1054 202 c 0,42,43
 1054 173 1054 173 1028 147 c 128,-1,44
 1002 121 1002 121 964.5 99 c 128,-1,45
 927 77 927 77 883.5 60 c 128,-1,46
 840 43 840 43 805 32 c 0,47,48
 703 0 703 0 603 0 c 0,49,50
 489 0 489 0 393.5 40.5 c 128,-1,51
 298 81 298 81 228.5 154 c 128,-1,52
 159 227 159 227 120.5 329 c 128,-1,53
 82 431 82 431 82 554 c 0,54,55
 82 661 82 661 113.5 770 c 128,-1,56
 145 879 145 879 202.5 978.5 c 128,-1,57
 260 1078 260 1078 340 1164.5 c 128,-1,58
 420 1251 420 1251 515 1315 c 128,-1,59
 610 1379 610 1379 717.5 1415.5 c 128,-1,60
 825 1452 825 1452 937 1452 c 0,61,62
 1060 1452 1060 1452 1159 1418 c 128,-1,63
 1258 1384 1258 1384 1326.5 1319 c 128,-1,64
 1395 1254 1395 1254 1432 1162 c 128,-1,65
 1469 1070 1469 1070 1469 955 c 0,66,67
 1469 897 1469 897 1460 828 c 128,-1,68
 1451 759 1451 759 1427.5 688.5 c 128,-1,69
 1404 618 1404 618 1366 551 c 128,-1,70
 1328 484 1328 484 1270 430 c 0,71,72
 1147 316 1147 316 1006 316 c 0,73,74
 970 316 970 316 938 329 c 128,-1,75
 906 342 906 342 881 369 c 1,76,77
 796 316 796 316 686 316 c 0,78,79
 622 316 622 316 571.5 335 c 128,-1,80
 521 354 521 354 485.5 389.5 c 128,-1,81
 450 425 450 425 431 476 c 128,-1,82
 412 527 412 527 412 592 c 0,83,84
 412 651 412 651 426 714 c 128,-1,85
 440 777 440 777 463.5 836.5 c 128,-1,86
 487 896 487 896 518.5 947.5 c 128,-1,87
 550 999 550 999 585 1034 c 0,88,89
 640 1089 640 1089 707 1116 c 128,-1,90
 774 1143 774 1143 852 1143 c 0,91,92
 936 1143 936 1143 1009 1103 c 1,0,1
887 932 m 1,93,94
 871 936 871 936 852 936 c 0,95,96
 772 936 772 936 719.5 876 c 128,-1,97
 667 816 667 816 636 703 c 1,98,99
 619 630 619 630 619 592 c 0,100,101
 619 572 619 572 621 559 c 128,-1,102
 623 546 623 546 630 538.5 c 128,-1,103
 637 531 637 531 650 527.5 c 128,-1,104
 663 524 663 524 686 524 c 0,105,106
 842 524 842 524 901 757 c 0,107,108
 918 821 918 821 918 868 c 0,109,110
 918 896 918 896 913.5 910 c 128,-1,111
 909 924 909 924 887 932 c 1,93,94
EndSplineSet
EndChar
StartChar: A
Encoding: 65 65 30
Width: 1156
Flags: W
LayerCount: 2
Back
Fore
SplineSet
272 50 m 2,0,1
 240 -4 240 -4 192 -4 c 0,2,3
 169 -4 169 -4 148 5.5 c 128,-1,4
 127 15 127 15 110.5 29 c 128,-1,5
 94 43 94 43 85 61 c 128,-1,6
 76 79 76 79 76 95 c 1,7,8
 77 109 77 109 81 125 c 128,-1,9
 85 141 85 141 94 157 c 2,10,-1
 844 1401 l 2,11,12
 877 1456 877 1456 924 1456 c 0,13,14
 942 1456 942 1456 961.5 1449 c 128,-1,15
 981 1442 981 1442 996.5 1428.5 c 128,-1,16
 1012 1415 1012 1415 1023 1396.5 c 128,-1,17
 1034 1378 1034 1378 1036 1355 c 2,18,-1
 1117 110 l 1,19,-1
 1117 96 l 2,20,21
 1117 1 1117 1 1011 1 c 0,22,23
 915 1 915 1 911 97 c 1,24,-1
 896 312 l 1,25,-1
 429 312 l 1,26,-1
 272 50 l 2,0,1
850 1012 m 1,27,-1
 554 519 l 1,28,-1
 882 519 l 1,29,-1
 850 1012 l 1,27,-1
EndSplineSet
EndChar
StartChar: D
Encoding: 68 68 33
Width: 1261
Flags: W
LayerCount: 2
Back
Fore
SplineSet
602 207 m 2,0,1
 683 207 683 207 746 231.5 c 128,-1,2
 809 256 809 256 857 297.5 c 128,-1,3
 905 339 905 339 941 393.5 c 128,-1,4
 977 448 977 448 1003.5 508.5 c 128,-1,5
 1030 569 1030 569 1049 632 c 128,-1,6
 1068 695 1068 695 1084 753 c 0,7,8
 1094 789 1094 789 1102.5 827.5 c 128,-1,9
 1111 866 1111 866 1118.5 903.5 c 128,-1,10
 1126 941 1126 941 1130.5 978 c 128,-1,11
 1135 1015 1135 1015 1135 1048 c 0,12,13
 1135 1088 1135 1088 1127.5 1124 c 128,-1,14
 1120 1160 1120 1160 1099 1187 c 128,-1,15
 1078 1214 1078 1214 1038.5 1229.5 c 128,-1,16
 999 1245 999 1245 936 1245 c 2,17,-1
 600 1245 l 1,18,-1
 321 207 l 1,19,-1
 602 207 l 2,0,1
1091 248 m 0,20,21
 1051 194 1051 194 1001.5 148 c 128,-1,22
 952 102 952 102 892 69 c 128,-1,23
 832 36 832 36 760.5 18 c 128,-1,24
 689 0 689 0 602 0 c 2,25,-1
 195 1 l 2,26,27
 193 1 193 1 190.5 0.5 c 128,-1,28
 188 0 188 0 186 0 c 0,29,30
 134 0 134 0 108 28.5 c 128,-1,31
 82 57 82 57 82 92 c 0,32,33
 82 101 82 101 83 110.5 c 128,-1,34
 84 120 84 120 86 131 c 2,35,-1
 420 1370 l 1,36,37
 434 1452 434 1452 521 1452 c 2,38,-1
 936 1452 l 2,39,40
 1052 1452 1052 1452 1130 1420.5 c 128,-1,41
 1208 1389 1208 1389 1255 1334.5 c 128,-1,42
 1302 1280 1302 1280 1322 1206.5 c 128,-1,43
 1342 1133 1342 1133 1342 1052 c 0,44,45
 1342 1010 1342 1010 1337.5 966 c 128,-1,46
 1333 922 1333 922 1324.5 876.5 c 128,-1,47
 1316 831 1316 831 1305.5 786 c 128,-1,48
 1295 741 1295 741 1283 700 c 1,49,50
 1269 644 1269 644 1250 584.5 c 128,-1,51
 1231 525 1231 525 1208 467 c 128,-1,52
 1185 409 1185 409 1156 353.5 c 128,-1,53
 1127 298 1127 298 1091 248 c 0,20,21
EndSplineSet
EndChar
StartChar: E
Encoding: 69 69 35
Width: 1287
Flags: W
LayerCount: 2
Back
Fore
SplineSet
1350 1452 m 2,0,1
 1454 1452 1454 1452 1454 1348 c 0,2,3
 1454 1245 1454 1245 1350 1245 c 2,4,-1
 600 1245 l 1,5,-1
 488 830 l 1,6,-1
 976 830 l 2,7,8
 1080 830 1080 830 1080 726 c 256,9,10
 1080 622 1080 622 976 622 c 2,11,-1
 433 622 l 1,12,-1
 322 207 l 1,13,-1
 1017 207 l 2,14,15
 1120 207 1120 207 1120 104 c 0,16,17
 1120 0 1120 0 1017 0 c 2,18,-1
 187 0 l 2,19,20
 135 0 135 0 108.5 28.5 c 128,-1,21
 82 57 82 57 82 92 c 0,22,23
 82 101 82 101 83 110.5 c 128,-1,24
 84 120 84 120 86 131 c 2,25,-1
 253 748 l 1,26,27
 254 757 254 757 256 759 c 1,28,-1
 420 1370 l 1,29,30
 434 1452 434 1452 521 1452 c 2,31,-1
 1350 1452 l 2,0,1
EndSplineSet
EndChar
StartChar: H
Encoding: 72 72 36
Width: 1310
Flags: W
LayerCount: 2
Back
Fore
SplineSet
477 1376 m 2,0,1
 497 1454 497 1454 564 1454 c 0,2,3
 593 1454 593 1454 615 1446.5 c 128,-1,4
 637 1439 637 1439 651.5 1425.5 c 128,-1,5
 666 1412 666 1412 674 1395.5 c 128,-1,6
 682 1379 682 1379 682 1360 c 0,7,8
 682 1342 682 1342 676 1322 c 2,9,-1
 544 830 l 1,10,-1
 1161 830 l 1,11,-1
 1306 1376 l 2,12,13
 1327 1454 1327 1454 1394 1454 c 0,14,15
 1423 1454 1423 1454 1445 1446.5 c 128,-1,16
 1467 1439 1467 1439 1482 1425.5 c 128,-1,17
 1497 1412 1497 1412 1504.5 1395.5 c 128,-1,18
 1512 1379 1512 1379 1512 1360 c 0,19,20
 1512 1342 1512 1342 1507 1322 c 2,21,-1
 1341 705 l 2,22,23
 1339 697 1339 697 1338 694 c 2,24,-1
 1173 77 l 2,25,26
 1153 -1 1153 -1 1084 -1 c 0,27,28
 1026 -1 1026 -1 996.5 26 c 128,-1,29
 967 53 967 53 967 90 c 0,30,31
 967 108 967 108 973 131 c 2,32,-1
 1105 622 l 1,33,-1
 489 622 l 1,34,-1
 343 77 l 2,35,36
 322 -1 322 -1 254 -1 c 0,37,38
 197 -1 197 -1 167.5 26.5 c 128,-1,39
 138 54 138 54 138 92 c 0,40,41
 138 101 138 101 139 110.5 c 128,-1,42
 140 120 140 120 142 131 c 2,43,-1
 309 748 l 1,44,45
 310 757 310 757 312 759 c 1,46,-1
 477 1376 l 2,0,1
EndSplineSet
EndChar
StartChar: J
Encoding: 74 74 38
Width: 1155
Flags: W
LayerCount: 2
Back
Fore
SplineSet
157 164 m 1,0,1
 133 199 133 199 133 230 c 0,2,3
 133 248 133 248 143 266 c 128,-1,4
 153 284 153 284 169.5 299 c 128,-1,5
 186 314 186 314 206 324 c 128,-1,6
 226 334 226 334 247 334 c 256,7,8
 268 334 268 334 284.5 322 c 128,-1,9
 301 310 301 310 317 292.5 c 128,-1,10
 333 275 333 275 351.5 257.5 c 128,-1,11
 370 240 370 240 395 229 c 0,12,13
 441 207 441 207 502 207 c 0,14,15
 582 207 582 207 653 239.5 c 128,-1,16
 724 272 724 272 780 321.5 c 128,-1,17
 836 371 836 371 874.5 430.5 c 128,-1,18
 913 490 913 490 928 545 c 2,19,-1
 1150 1376 l 2,20,21
 1170 1454 1170 1454 1237 1454 c 0,22,23
 1295 1454 1295 1454 1325.5 1425.5 c 128,-1,24
 1356 1397 1356 1397 1356 1360 c 0,25,26
 1356 1342 1356 1342 1350 1322 c 2,27,-1
 1128 492 l 2,28,29
 1100 390 1100 390 1037.5 300 c 128,-1,30
 975 210 975 210 890.5 143.5 c 128,-1,31
 806 77 806 77 705.5 38.5 c 128,-1,32
 605 0 605 0 502 0 c 0,33,34
 395 0 395 0 306 42 c 128,-1,35
 217 84 217 84 157 164 c 1,0,1
EndSplineSet
EndChar
StartChar: K
Encoding: 75 75 39
Width: 1330
Flags: W
LayerCount: 2
Back
Fore
SplineSet
484 1376 m 2,0,1
 504 1454 504 1454 571 1454 c 0,2,3
 599 1454 599 1454 621.5 1446.5 c 128,-1,4
 644 1439 644 1439 658.5 1425.5 c 128,-1,5
 673 1412 673 1412 681 1395.5 c 128,-1,6
 689 1379 689 1379 689 1360 c 0,7,8
 689 1342 689 1342 683 1322 c 2,9,-1
 540 786 l 1,10,-1
 1356 1430 l 2,11,12
 1391 1457 1391 1457 1424 1457 c 0,13,14
 1442 1457 1442 1457 1460.5 1447 c 128,-1,15
 1479 1437 1479 1437 1494.5 1420 c 128,-1,16
 1510 1403 1510 1403 1520 1383 c 128,-1,17
 1530 1363 1530 1363 1530 1343 c 0,18,19
 1530 1304 1530 1304 1485 1268 c 2,20,-1
 904 810 l 1,21,-1
 1201 146 l 2,22,23
 1214 118 1214 118 1214 92 c 0,24,25
 1214 76 1214 76 1205 59 c 128,-1,26
 1196 42 1196 42 1181 28.5 c 128,-1,27
 1166 15 1166 15 1143.5 6.5 c 128,-1,28
 1121 -2 1121 -2 1095 -2 c 0,29,30
 1041 -3 1041 -3 1012 62 c 2,31,-1
 737 678 l 1,32,-1
 450 452 l 1,33,-1
 350 77 l 2,34,35
 329 -1 329 -1 260 -1 c 0,36,37
 203 -1 203 -1 173.5 26.5 c 128,-1,38
 144 54 144 54 144 92 c 0,39,40
 144 101 144 101 145 110.5 c 128,-1,41
 146 120 146 120 149 131 c 2,42,-1
 484 1376 l 2,0,1
EndSplineSet
EndChar
StartChar: L
Encoding: 76 76 40
Width: 1187
Flags: W
LayerCount: 2
Back
Fore
SplineSet
470 1376 m 2,0,1
 490 1454 490 1454 557 1454 c 0,2,3
 586 1454 586 1454 608 1446.5 c 128,-1,4
 630 1439 630 1439 644.5 1425.5 c 128,-1,5
 659 1412 659 1412 667 1395.5 c 128,-1,6
 675 1379 675 1379 675 1360 c 0,7,8
 675 1342 675 1342 669 1322 c 2,9,-1
 371 207 l 1,10,-1
 962 207 l 2,11,12
 1066 207 1066 207 1066 104 c 0,13,14
 1066 0 1066 0 962 0 c 2,15,-1
 236 0 l 2,16,17
 184 0 184 0 157.5 28.5 c 128,-1,18
 131 57 131 57 131 92 c 0,19,20
 131 101 131 101 132 110.5 c 128,-1,21
 133 120 133 120 136 131 c 2,22,-1
 470 1376 l 2,0,1
EndSplineSet
EndChar
StartChar: M
Encoding: 77 77 41
Width: 1501
Flags: W
LayerCount: 2
Back
Fore
SplineSet
327 77 m 2,0,1
 307 -1 307 -1 238 -1 c 0,2,3
 181 -1 181 -1 151.5 26.5 c 128,-1,4
 122 54 122 54 122 92 c 0,5,6
 122 101 122 101 123 110.5 c 128,-1,7
 124 120 124 120 127 131 c 2,8,-1
 461 1376 l 2,9,10
 482 1454 482 1454 548 1454 c 0,11,12
 596 1454 596 1454 625.5 1431 c 128,-1,13
 655 1408 655 1408 663 1368 c 1,14,-1
 853 547 l 1,15,-1
 1518 1412 l 1,16,17
 1554 1457 1554 1457 1595 1457 c 0,18,19
 1613 1457 1613 1457 1632 1449 c 128,-1,20
 1651 1441 1651 1441 1667 1426 c 128,-1,21
 1683 1411 1683 1411 1693.5 1392.5 c 128,-1,22
 1704 1374 1704 1374 1704 1353 c 0,23,24
 1704 1337 1704 1337 1700 1322 c 1,25,-1
 1701 1322 l 1,26,-1
 1367 77 l 2,27,28
 1346 -1 1346 -1 1278 -1 c 0,29,30
 1220 -1 1220 -1 1190.5 26.5 c 128,-1,31
 1161 54 1161 54 1161 90 c 0,32,33
 1161 108 1161 108 1166 131 c 1,34,-1
 1366 875 l 1,35,-1
 885 252 l 1,36,37
 869 226 869 226 843 215.5 c 128,-1,38
 817 205 817 205 788 205 c 0,39,40
 719 205 719 205 701 288 c 1,41,-1
 554 922 l 1,42,-1
 327 77 l 2,0,1
EndSplineSet
EndChar
StartChar: O
Encoding: 79 79 43
Width: 1207
Flags: W
LayerCount: 2
Back
Fore
SplineSet
944 1452 m 0,0,1
 993 1452 993 1452 1041.5 1445 c 128,-1,2
 1090 1438 1090 1438 1134 1419 c 128,-1,3
 1178 1400 1178 1400 1217 1368.5 c 128,-1,4
 1256 1337 1256 1337 1284.5 1290 c 128,-1,5
 1313 1243 1313 1243 1329 1177.5 c 128,-1,6
 1345 1112 1345 1112 1345 1026 c 0,7,8
 1345 894 1345 894 1293 700 c 0,9,10
 1252 546 1252 546 1201 435 c 128,-1,11
 1150 324 1150 324 1092 246 c 128,-1,12
 1034 168 1034 168 972 120 c 128,-1,13
 910 72 910 72 847.5 45.5 c 128,-1,14
 785 19 785 19 725 9.5 c 128,-1,15
 665 0 665 0 611 0 c 0,16,17
 539 0 539 0 467 17.5 c 128,-1,18
 395 35 395 35 338.5 82 c 128,-1,19
 282 129 282 129 246.5 210.5 c 128,-1,20
 211 292 211 292 211 421 c 0,21,22
 211 553 211 553 263 753 c 1,23,24
 302 898 302 898 350.5 1006 c 128,-1,25
 399 1114 399 1114 454.5 1192 c 128,-1,26
 510 1270 510 1270 571 1320.5 c 128,-1,27
 632 1371 632 1371 695 1400.5 c 128,-1,28
 758 1430 758 1430 821 1441 c 128,-1,29
 884 1452 884 1452 944 1452 c 0,0,1
1109 1179 m 1,30,31
 1087 1218 1087 1218 1042 1231.5 c 128,-1,32
 997 1245 997 1245 944 1245 c 0,33,34
 877 1245 877 1245 809.5 1222 c 128,-1,35
 742 1199 742 1199 679.5 1138.5 c 128,-1,36
 617 1078 617 1078 562 972 c 128,-1,37
 507 866 507 866 463 700 c 0,38,39
 438 608 438 608 427 537.5 c 128,-1,40
 416 467 416 467 416 414 c 0,41,42
 416 360 416 360 425.5 320.5 c 128,-1,43
 435 281 435 281 458 256 c 128,-1,44
 481 231 481 231 518 219 c 128,-1,45
 555 207 555 207 611 207 c 0,46,47
 655 207 655 207 699.5 216 c 128,-1,48
 744 225 744 225 787 248 c 128,-1,49
 830 271 830 271 872.5 310.5 c 128,-1,50
 915 350 915 350 954 410.5 c 128,-1,51
 993 471 993 471 1027.5 555.5 c 128,-1,52
 1062 640 1062 640 1093 753 c 0,53,54
 1117 844 1117 844 1127.5 915 c 128,-1,55
 1138 986 1138 986 1138 1040 c 0,56,57
 1138 1131 1138 1131 1109 1179 c 1,30,31
EndSplineSet
EndChar
StartChar: P
Encoding: 80 80 45
Width: 1198
Flags: W
LayerCount: 2
Back
Fore
SplineSet
285 748 m 1,0,1
 286 757 286 757 288 759 c 1,2,-1
 452 1370 l 1,3,4
 467 1452 467 1452 553 1452 c 2,5,-1
 1071 1452 l 2,6,7
 1144 1452 1144 1452 1206.5 1427 c 128,-1,8
 1269 1402 1269 1402 1315 1357.5 c 128,-1,9
 1361 1313 1361 1313 1387.5 1251.5 c 128,-1,10
 1414 1190 1414 1190 1414 1118 c 0,11,12
 1414 1051 1414 1051 1393.5 988 c 128,-1,13
 1373 925 1373 925 1336.5 870 c 128,-1,14
 1300 815 1300 815 1251.5 769 c 128,-1,15
 1203 723 1203 723 1146 690.5 c 128,-1,16
 1089 658 1089 658 1027.5 640 c 128,-1,17
 966 622 966 622 905 622 c 2,18,-1
 466 622 l 1,19,-1
 319 77 l 1,20,21
 299 -1 299 -1 230 -1 c 0,22,23
 173 -1 173 -1 143.5 26.5 c 128,-1,24
 114 54 114 54 114 92 c 0,25,26
 114 101 114 101 115 110.5 c 128,-1,27
 116 120 116 120 119 131 c 2,28,-1
 285 748 l 1,0,1
521 830 m 1,29,-1
 905 830 l 2,30,31
 954 830 954 830 1007.5 853.5 c 128,-1,32
 1061 877 1061 877 1105.5 916.5 c 128,-1,33
 1150 956 1150 956 1178.5 1008 c 128,-1,34
 1207 1060 1207 1060 1207 1118 c 0,35,36
 1207 1174 1207 1174 1171.5 1209.5 c 128,-1,37
 1136 1245 1136 1245 1071 1245 c 2,38,-1
 633 1245 l 1,39,-1
 521 830 l 1,29,-1
EndSplineSet
EndChar
StartChar: Q
Encoding: 81 81 47
Width: 1183
Flags: W
LayerCount: 2
Back
Fore
SplineSet
1055 165 m 2,0,1
 1081 129 1081 129 1081 98 c 0,2,3
 1081 82 1081 82 1070.5 63.5 c 128,-1,4
 1060 45 1060 45 1044 30 c 128,-1,5
 1028 15 1028 15 1008 5 c 128,-1,6
 988 -5 988 -5 967 -5 c 256,7,8
 946 -5 946 -5 926 6.5 c 128,-1,9
 906 18 906 18 888 42 c 2,10,-1
 860 82 l 1,11,12
 783 34 783 34 707 17 c 128,-1,13
 631 0 631 0 557 0 c 0,14,15
 484 0 484 0 412.5 17.5 c 128,-1,16
 341 35 341 35 284.5 82 c 128,-1,17
 228 129 228 129 192.5 210.5 c 128,-1,18
 157 292 157 292 157 421 c 0,19,20
 157 553 157 553 209 753 c 1,21,22
 248 898 248 898 296.5 1006 c 128,-1,23
 345 1114 345 1114 400.5 1192 c 128,-1,24
 456 1270 456 1270 517 1320.5 c 128,-1,25
 578 1371 578 1371 641 1400.5 c 128,-1,26
 704 1430 704 1430 767 1441 c 128,-1,27
 830 1452 830 1452 890 1452 c 0,28,29
 939 1452 939 1452 987.5 1445 c 128,-1,30
 1036 1438 1036 1438 1080 1419 c 128,-1,31
 1124 1400 1124 1400 1163 1368.5 c 128,-1,32
 1202 1337 1202 1337 1230.5 1290 c 128,-1,33
 1259 1243 1259 1243 1275 1177.5 c 128,-1,34
 1291 1112 1291 1112 1291 1026 c 0,35,36
 1291 894 1291 894 1239 700 c 0,37,38
 1194 534 1194 534 1137 416.5 c 128,-1,39
 1080 299 1080 299 1016 219 c 1,40,-1
 1055 165 l 2,0,1
737 250 m 1,41,42
 711 284 711 284 711 316 c 0,43,44
 711 331 711 331 720 349 c 128,-1,45
 729 367 729 367 744 382 c 128,-1,46
 759 397 759 397 778.5 407 c 128,-1,47
 798 417 798 417 821 417 c 0,48,49
 855 417 855 417 886 391 c 1,50,51
 977 523 977 523 1039 753 c 0,52,53
 1063 844 1063 844 1073.5 915 c 128,-1,54
 1084 986 1084 986 1084 1040 c 0,55,56
 1084 1103 1084 1103 1070.5 1143 c 128,-1,57
 1057 1183 1057 1183 1032 1205.5 c 128,-1,58
 1007 1228 1007 1228 971.5 1236.5 c 128,-1,59
 936 1245 936 1245 890 1245 c 0,60,61
 823 1245 823 1245 755.5 1222 c 128,-1,62
 688 1199 688 1199 625.5 1138.5 c 128,-1,63
 563 1078 563 1078 508 972 c 128,-1,64
 453 866 453 866 409 700 c 0,65,66
 384 608 384 608 373 537.5 c 128,-1,67
 362 467 362 467 362 414 c 0,68,69
 362 360 362 360 371.5 320.5 c 128,-1,70
 381 281 381 281 404 256 c 128,-1,71
 427 231 427 231 464 219 c 128,-1,72
 501 207 501 207 557 207 c 0,73,74
 659 207 659 207 737 250 c 1,41,42
EndSplineSet
EndChar
StartChar: R
Encoding: 82 82 46
Width: 1254
Flags: W
LayerCount: 2
Back
Fore
SplineSet
289 748 m 1,0,1
 290 757 290 757 292 759 c 1,2,-1
 456 1370 l 1,3,4
 471 1452 471 1452 557 1452 c 2,5,-1
 1075 1452 l 2,6,7
 1148 1452 1148 1452 1210.5 1427 c 128,-1,8
 1273 1402 1273 1402 1319 1357.5 c 128,-1,9
 1365 1313 1365 1313 1391.5 1251.5 c 128,-1,10
 1418 1190 1418 1190 1418 1118 c 0,11,12
 1418 1052 1418 1052 1398.5 991.5 c 128,-1,13
 1379 931 1379 931 1345 877 c 128,-1,14
 1311 823 1311 823 1264.5 777.5 c 128,-1,15
 1218 732 1218 732 1163.5 698.5 c 128,-1,16
 1109 665 1109 665 1049.5 645.5 c 128,-1,17
 990 626 990 626 930 623 c 1,18,-1
 1074 133 l 2,19,20
 1077 122 1077 122 1079 111 c 128,-1,21
 1081 100 1081 100 1081 91 c 0,22,23
 1081 55 1081 55 1051.5 26.5 c 128,-1,24
 1022 -2 1022 -2 965 -2 c 0,25,26
 933 -2 933 -2 909.5 17 c 128,-1,27
 886 36 886 36 876 75 c 1,28,-1
 714 622 l 1,29,-1
 470 622 l 1,30,-1
 323 77 l 1,31,32
 303 -1 303 -1 234 -1 c 0,33,34
 177 -1 177 -1 147.5 26.5 c 128,-1,35
 118 54 118 54 118 92 c 0,36,37
 118 101 118 101 119 110.5 c 128,-1,38
 120 120 120 120 123 131 c 2,39,-1
 289 748 l 1,0,1
525 830 m 1,40,-1
 909 830 l 2,41,42
 958 830 958 830 1011.5 853.5 c 128,-1,43
 1065 877 1065 877 1109.5 916.5 c 128,-1,44
 1154 956 1154 956 1182.5 1008 c 128,-1,45
 1211 1060 1211 1060 1211 1118 c 0,46,47
 1211 1174 1211 1174 1175.5 1209.5 c 128,-1,48
 1140 1245 1140 1245 1075 1245 c 2,49,-1
 637 1245 l 1,50,-1
 525 830 l 1,40,-1
EndSplineSet
EndChar
StartChar: S
Encoding: 83 83 44
Width: 1243
Flags: W
LayerCount: 2
Back
Fore
SplineSet
1370 1167 m 0,0,1
 1376 1145 1376 1145 1376 1128 c 0,2,3
 1376 1090 1376 1090 1345.5 1062.5 c 128,-1,4
 1315 1035 1315 1035 1256 1035 c 0,5,6
 1190 1035 1190 1035 1169 1114 c 0,7,8
 1154 1171 1154 1171 1099 1205 c 1,9,-1
 1099 1206 l 1,10,-1
 1099 1205 l 1,11,12
 1029 1245 1029 1245 910 1245 c 0,13,14
 838 1245 838 1245 766 1221.5 c 128,-1,15
 694 1198 694 1198 636 1159 c 128,-1,16
 578 1120 578 1120 541.5 1070.5 c 128,-1,17
 505 1021 505 1021 505 970 c 0,18,19
 505 916 505 916 570.5 879.5 c 128,-1,20
 636 843 636 843 755 829 c 1,21,22
 859 818 859 818 939.5 788 c 128,-1,23
 1020 758 1020 758 1075.5 713 c 128,-1,24
 1131 668 1131 668 1160 609.5 c 128,-1,25
 1189 551 1189 551 1189 482 c 0,26,27
 1189 417 1189 417 1165 356 c 128,-1,28
 1141 295 1141 295 1098.5 241.5 c 128,-1,29
 1056 188 1056 188 997.5 143.5 c 128,-1,30
 939 99 939 99 871.5 67 c 128,-1,31
 804 35 804 35 729 17.5 c 128,-1,32
 654 0 654 0 577 0 c 0,33,34
 400 0 400 0 285 68 c 1,35,36
 283 68 283 68 281 69.5 c 128,-1,37
 279 71 279 71 278 72 c 0,38,39
 154 144 154 144 117 285 c 0,40,41
 114 295 114 295 113 304 c 128,-1,42
 112 313 112 313 112 322 c 0,43,44
 112 341 112 341 119.5 358 c 128,-1,45
 127 375 127 375 141.5 388.5 c 128,-1,46
 156 402 156 402 178 410 c 128,-1,47
 200 418 200 418 229 418 c 0,48,49
 295 418 295 418 317 338 c 1,50,51
 334 280 334 280 384 250 c 0,52,53
 386 248 386 248 388 248 c 1,54,55
 458 207 458 207 577 207 c 0,56,57
 645 207 645 207 712 228 c 128,-1,58
 779 249 779 249 835 284 c 128,-1,59
 891 319 891 319 930.5 367 c 128,-1,60
 970 415 970 415 982 470 c 1,61,-1
 982 480 l 2,62,63
 982 536 982 536 916.5 573 c 128,-1,64
 851 610 851 610 732 623 c 0,65,66
 624 635 624 635 543 665 c 128,-1,67
 462 695 462 695 407.5 740.5 c 128,-1,68
 353 786 353 786 325.5 845 c 128,-1,69
 298 904 298 904 298 972 c 0,70,71
 298 1035 298 1035 322 1095.5 c 128,-1,72
 346 1156 346 1156 387.5 1209 c 128,-1,73
 429 1262 429 1262 487 1306.5 c 128,-1,74
 545 1351 545 1351 613.5 1383.5 c 128,-1,75
 682 1416 682 1416 757 1434 c 128,-1,76
 832 1452 832 1452 910 1452 c 0,77,78
 999 1452 999 1452 1075.5 1433.5 c 128,-1,79
 1152 1415 1152 1415 1211 1378.5 c 128,-1,80
 1270 1342 1270 1342 1310 1289 c 128,-1,81
 1350 1236 1350 1236 1370 1167 c 0,0,1
EndSplineSet
EndChar
StartChar: U
Encoding: 85 85 56
Width: 1258
Flags: W
LayerCount: 2
Back
Fore
SplineSet
387 1394 m 2,0,1
 408 1473 408 1473 475 1473 c 0,2,3
 504 1473 504 1473 526 1465 c 128,-1,4
 548 1457 548 1457 563 1444 c 128,-1,5
 578 1431 578 1431 586 1414 c 128,-1,6
 594 1397 594 1397 594 1379 c 256,7,8
 594 1361 594 1361 588 1340 c 2,9,-1
 365 492 l 2,10,11
 354 451 354 451 354 411 c 0,12,13
 354 363 354 363 369.5 325 c 128,-1,14
 385 287 385 287 413 261 c 128,-1,15
 441 235 441 235 481 221 c 128,-1,16
 521 207 521 207 568 207 c 0,17,18
 635 207 635 207 703 234 c 128,-1,19
 771 261 771 261 829.5 307.5 c 128,-1,20
 888 354 888 354 932.5 415.5 c 128,-1,21
 977 477 977 477 995 545 c 2,22,-1
 1218 1398 l 2,23,24
 1238 1478 1238 1478 1306 1478 c 0,25,26
 1336 1478 1336 1478 1357.5 1470 c 128,-1,27
 1379 1462 1379 1462 1393.5 1449 c 128,-1,28
 1408 1436 1408 1436 1415.5 1418.5 c 128,-1,29
 1423 1401 1423 1401 1423 1383 c 0,30,31
 1423 1368 1423 1368 1418 1345 c 1,32,-1
 1194 492 l 2,33,34
 1167 389 1167 389 1104 299.5 c 128,-1,35
 1041 210 1041 210 955.5 143.5 c 128,-1,36
 870 77 870 77 769.5 38.5 c 128,-1,37
 669 0 669 0 568 0 c 0,38,39
 477 0 477 0 399.5 31 c 128,-1,40
 322 62 322 62 266 117 c 128,-1,41
 210 172 210 172 178.5 247 c 128,-1,42
 147 322 147 322 147 411 c 0,43,44
 147 481 147 481 165 545 c 1,45,-1
 387 1394 l 2,0,1
EndSplineSet
EndChar
StartChar: Y
Encoding: 89 89 52
Width: 1031
Flags: W
LayerCount: 2
Back
Fore
SplineSet
252 1331 m 2,0,1
 249 1346 249 1346 249 1360 c 0,2,3
 249 1401 249 1401 278 1427 c 128,-1,4
 307 1453 307 1453 364 1453 c 0,5,6
 439 1453 439 1453 455 1367 c 2,7,-1
 579 675 l 1,8,-1
 1099 1408 l 2,9,10
 1134 1457 1134 1457 1177 1457 c 0,11,12
 1198 1457 1198 1457 1218 1447.5 c 128,-1,13
 1238 1438 1238 1438 1255 1422.5 c 128,-1,14
 1272 1407 1272 1407 1282 1389 c 128,-1,15
 1292 1371 1292 1371 1292 1354 c 0,16,17
 1292 1325 1292 1325 1267 1288 c 1,18,-1
 616 370 l 1,19,-1
 537 77 l 2,20,21
 516 -1 516 -1 447 -1 c 0,22,23
 389 -1 389 -1 359.5 26.5 c 128,-1,24
 330 54 330 54 330 90 c 0,25,26
 330 108 330 108 336 131 c 2,27,-1
 415 420 l 1,28,-1
 252 1331 l 2,0,1
EndSplineSet
EndChar
StartChar: bracketleft
Encoding: 91 91 199
Width: 656
Flags: W
LayerCount: 2
Back
Fore
SplineSet
603 1661 m 2,0,-1
 611 1661 l 1,1,-1
 615 1661 l 1,2,-1
 857 1661 l 2,3,4
 961 1661 961 1661 961 1557 c 256,5,6
 961 1453 961 1453 857 1453 c 2,7,-1
 695 1453 l 1,8,-1
 308 2 l 1,9,-1
 413 2 l 2,10,11
 517 2 517 2 517 -102 c 0,12,13
 517 -205 517 -205 413 -205 c 2,14,-1
 203 -205 l 1,15,16
 194 -207 194 -207 183 -207 c 0,17,18
 161 -207 161 -207 143 -203 c 1,19,20
 89 -195 89 -195 73 -147 c 0,21,22
 67 -132 67 -132 67 -114 c 2,23,-1
 67 -107 l 1,24,-1
 67 -102 l 2,25,26
 67 -63 67 -63 82 -38 c 1,27,-1
 511 1564 l 1,28,29
 514 1633 514 1633 566 1653 c 1,30,31
 583 1661 583 1661 603 1661 c 2,0,-1
EndSplineSet
EndChar
StartChar: backslash
Encoding: 92 92 64
Width: 1239
Flags: W
LayerCount: 2
Back
Fore
SplineSet
775 1376 m 2,0,1
 796 1454 796 1454 863 1454 c 0,2,3
 892 1454 892 1454 914.5 1446.5 c 128,-1,4
 937 1439 937 1439 951.5 1425.5 c 128,-1,5
 966 1412 966 1412 974 1395.5 c 128,-1,6
 982 1379 982 1379 982 1360 c 0,7,8
 982 1342 982 1342 976 1322 c 2,9,-1
 894 1020 l 1,10,11
 962 999 962 999 1016 961.5 c 128,-1,12
 1070 924 1070 924 1108 873 c 128,-1,13
 1146 822 1146 822 1166 759.5 c 128,-1,14
 1186 697 1186 697 1186 627 c 0,15,16
 1186 516 1186 516 1140.5 412 c 128,-1,17
 1095 308 1095 308 1017 223.5 c 128,-1,18
 939 139 939 139 837.5 81 c 128,-1,19
 736 23 736 23 623 6 c 1,20,-1
 531 -337 l 2,21,22
 520 -376 520 -376 497.5 -396 c 128,-1,23
 475 -416 475 -416 442 -416 c 0,24,25
 414 -416 414 -416 392 -408 c 128,-1,26
 370 -400 370 -400 355 -387 c 128,-1,27
 340 -374 340 -374 332.5 -358 c 128,-1,28
 325 -342 325 -342 325 -324 c 1,29,30
 324 -314 324 -314 326 -304.5 c 128,-1,31
 328 -295 328 -295 331 -284 c 2,32,-1
 412 18 l 1,33,34
 346 36 346 36 292 73 c 128,-1,35
 238 110 238 110 199.5 161.5 c 128,-1,36
 161 213 161 213 140.5 276.5 c 128,-1,37
 120 340 120 340 120 411 c 0,38,39
 120 483 120 483 140 553 c 128,-1,40
 160 623 160 623 197.5 688.5 c 128,-1,41
 235 754 235 754 286.5 811 c 128,-1,42
 338 868 338 868 400.5 913 c 128,-1,43
 463 958 463 958 534.5 988.5 c 128,-1,44
 606 1019 606 1019 683 1031 c 1,45,-1
 775 1376 l 2,0,1
841 820 m 1,46,-1
 685 237 l 1,47,48
 748 261 748 261 802 303.5 c 128,-1,49
 856 346 856 346 895.5 398.5 c 128,-1,50
 935 451 935 451 957 510 c 128,-1,51
 979 569 979 569 979 627 c 0,52,53
 979 701 979 701 942 750 c 128,-1,54
 905 799 905 799 841 820 c 1,46,-1
465 217 m 1,55,-1
 622 801 l 1,56,57
 554 771 554 771 499.5 728.5 c 128,-1,58
 445 686 445 686 407 635 c 128,-1,59
 369 584 369 584 348 526.5 c 128,-1,60
 327 469 327 469 327 411 c 0,61,62
 327 339 327 339 362.5 288 c 128,-1,63
 398 237 398 237 465 217 c 1,55,-1
EndSplineSet
EndChar
StartChar: underscore
Encoding: 95 95 119
Width: 708
Flags: W
LayerCount: 2
Back
Fore
SplineSet
5 -427 m 2,0,1
 -99 -427 -99 -427 -99 -323 c 256,2,3
 -99 -219 -99 -219 5 -219 c 2,4,-1
 699 -219 l 2,5,6
 803 -219 803 -219 803 -323 c 256,7,8
 803 -427 803 -427 699 -427 c 2,9,-1
 5 -427 l 2,0,1
EndSplineSet
EndChar
StartChar: b
Encoding: 98 98 6
Width: 1086
Flags: W
LayerCount: 2
Back
Fore
SplineSet
510 1376 m 2,0,1
 531 1454 531 1454 597 1454 c 0,2,3
 626 1454 626 1454 648 1446.5 c 128,-1,4
 670 1439 670 1439 685 1425.5 c 128,-1,5
 700 1412 700 1412 707.5 1395.5 c 128,-1,6
 715 1379 715 1379 715 1360 c 0,7,8
 715 1342 715 1342 710 1322 c 2,9,-1
 624 1000 l 1,10,11
 712 1038 712 1038 810 1038 c 0,12,13
 883 1038 883 1038 944.5 1016 c 128,-1,14
 1006 994 1006 994 1050 951 c 128,-1,15
 1094 908 1094 908 1118 846 c 128,-1,16
 1142 784 1142 784 1142 704 c 0,17,18
 1142 630 1142 630 1124 548.5 c 128,-1,19
 1106 467 1106 467 1076 390 c 128,-1,20
 1046 313 1046 313 1005.5 246.5 c 128,-1,21
 965 180 965 180 921 136 c 0,22,23
 783 0 783 0 588 0 c 0,24,25
 527 0 527 0 471 16 c 128,-1,26
 415 32 415 32 372 64 c 1,27,28
 346 -1 346 -1 284 -1 c 0,29,30
 228 -1 228 -1 199.5 27 c 128,-1,31
 171 55 171 55 171 92 c 0,32,33
 171 101 171 101 172 110.5 c 128,-1,34
 173 120 173 120 176 131 c 2,35,-1
 510 1376 l 2,0,1
867 824 m 1,36,37
 840 830 840 830 810 830 c 0,38,39
 697 830 697 830 618 750.5 c 128,-1,40
 539 671 539 671 491 506 c 1,41,42
 488 490 488 490 488 490 c 1,43,-1
 488 492 l 1,44,-1
 484 479 l 1,45,-1
 482 467 l 1,46,-1
 481 467 l 1,47,48
 481 469 481 469 482 470 c 0,49,50
 483 472 483 472 483 472 c 2,51,52
 482 472 482 472 482 471 c 2,53,-1
 482 467 l 1,54,55
 463 393 463 393 463 334 c 0,56,57
 463 300 463 300 469 276 c 128,-1,58
 475 252 475 252 489 236.5 c 128,-1,59
 503 221 503 221 527 214 c 128,-1,60
 551 207 551 207 588 207 c 0,61,62
 817 207 817 207 910 545 c 0,63,64
 935 637 935 637 935 704 c 0,65,66
 935 755 935 755 921 782.5 c 128,-1,67
 907 810 907 810 867 824 c 1,36,37
EndSplineSet
EndChar
StartChar: f
Encoding: 102 102 9
Width: 668
Flags: W
LayerCount: 2
Back
Fore
SplineSet
370 77 m 2,0,1
 349 -1 349 -1 280 -1 c 0,2,3
 223 -1 223 -1 193.5 26.5 c 128,-1,4
 164 54 164 54 164 92 c 0,5,6
 164 101 164 101 165 110.5 c 128,-1,7
 166 120 166 120 169 131 c 2,8,-1
 357 830 l 1,9,-1
 362 830 l 2,10,11
 257 830 257 830 257 934 c 256,12,13
 257 1038 257 1038 362 1038 c 2,14,-1
 412 1038 l 1,15,-1
 447 1168 l 2,16,17
 461 1219 461 1219 493 1270 c 128,-1,18
 525 1321 525 1321 572 1361 c 128,-1,19
 619 1401 619 1401 680 1426.5 c 128,-1,20
 741 1452 741 1452 813 1452 c 0,21,22
 916 1452 916 1452 916 1349 c 256,23,24
 916 1246 916 1246 812 1246 c 0,25,26
 789 1246 789 1246 763.5 1236.5 c 128,-1,27
 738 1227 738 1227 715 1210 c 128,-1,28
 692 1193 692 1193 673.5 1169 c 128,-1,29
 655 1145 655 1145 648 1115 c 1,30,-1
 627 1038 l 1,31,-1
 700 1038 l 2,32,33
 803 1038 803 1038 803 934 c 256,34,35
 803 830 803 830 700 830 c 2,36,-1
 571 830 l 1,37,-1
 370 77 l 2,0,1
EndSplineSet
EndChar
StartChar: j
Encoding: 106 106 12
Width: 609
Flags: W
LayerCount: 2
Back
Fore
SplineSet
450 960 m 2,0,1
 471 1040 471 1040 539 1040 c 0,2,3
 567 1040 567 1040 589 1032 c 128,-1,4
 611 1024 611 1024 626 1010.5 c 128,-1,5
 641 997 641 997 648.5 980.5 c 128,-1,6
 656 964 656 964 656 945 c 0,7,8
 656 928 656 928 651 907 c 2,9,-1
 373 -129 l 2,10,11
 357 -188 357 -188 321 -240 c 128,-1,12
 285 -292 285 -292 236 -330.5 c 128,-1,13
 187 -369 187 -369 128.5 -391 c 128,-1,14
 70 -413 70 -413 10 -413 c 0,15,16
 -39 -413 -39 -413 -65 -387.5 c 128,-1,17
 -91 -362 -91 -362 -91 -310 c 0,18,19
 -91 -206 -91 -206 12 -206 c 0,20,21
 36 -206 36 -206 62 -195 c 128,-1,22
 88 -184 88 -184 111 -165.5 c 128,-1,23
 134 -147 134 -147 150.5 -123.5 c 128,-1,24
 167 -100 167 -100 174 -76 c 2,25,-1
 450 960 l 2,0,1
562 1376 m 1,26,27
 583 1454 583 1454 650 1454 c 0,28,29
 678 1454 678 1454 700 1446.5 c 128,-1,30
 722 1439 722 1439 737 1425.5 c 128,-1,31
 752 1412 752 1412 760 1395.5 c 128,-1,32
 768 1379 768 1379 768 1360 c 0,33,34
 768 1342 768 1342 762 1322 c 1,35,-1
 762 1320 l 1,36,37
 739 1240 739 1240 674 1240 c 0,38,39
 615 1240 615 1240 585 1267.5 c 128,-1,40
 555 1295 555 1295 555 1333 c 0,41,42
 555 1350 555 1350 561 1373 c 1,43,-1
 562 1376 l 1,26,27
EndSplineSet
EndChar
StartChar: m
Encoding: 109 109 15
Width: 1652
Flags: W
LayerCount: 2
Back
Fore
SplineSet
444 596 m 2,0,-1
 305 77 l 2,1,2
 284 -1 284 -1 215 -1 c 0,3,4
 158 -1 158 -1 128.5 26.5 c 128,-1,5
 99 54 99 54 99 92 c 0,6,7
 99 101 99 101 100 110.5 c 128,-1,8
 101 120 101 120 104 131 c 2,9,-1
 327 960 l 2,10,11
 348 1039 348 1039 417 1039 c 0,12,13
 449 1039 449 1039 476 1024.5 c 128,-1,14
 503 1010 503 1010 519 982 c 1,15,16
 626 1038 626 1038 738 1038 c 0,17,18
 825 1038 825 1038 896.5 1003 c 128,-1,19
 968 968 968 968 1015 906 c 0,20,21
 1021 898 1021 898 1021 898 c 1,22,23
 1102 968 1102 968 1185.5 1003 c 128,-1,24
 1269 1038 1269 1038 1361 1038 c 0,25,26
 1433 1038 1433 1038 1496 1013 c 128,-1,27
 1559 988 1559 988 1604.5 943 c 128,-1,28
 1650 898 1650 898 1676.5 836.5 c 128,-1,29
 1703 775 1703 775 1703 703 c 0,30,31
 1703 652 1703 652 1688 596 c 2,32,-1
 1550 77 l 2,33,34
 1529 -1 1529 -1 1460 -1 c 0,35,36
 1402 -1 1402 -1 1372.5 26.5 c 128,-1,37
 1343 54 1343 54 1343 90 c 0,38,39
 1343 108 1343 108 1349 131 c 2,40,-1
 1488 650 l 2,41,42
 1491 661 1491 661 1493.5 674 c 128,-1,43
 1496 687 1496 687 1496 703 c 0,44,45
 1496 729 1496 729 1487.5 752 c 128,-1,46
 1479 775 1479 775 1462 792.5 c 128,-1,47
 1445 810 1445 810 1419.5 820 c 128,-1,48
 1394 830 1394 830 1361 830 c 0,49,50
 1314 830 1314 830 1266 810 c 128,-1,51
 1218 790 1218 790 1177.5 757 c 128,-1,52
 1137 724 1137 724 1107.5 682 c 128,-1,53
 1078 640 1078 640 1066 596 c 2,54,-1
 927 77 l 2,55,56
 906 -1 906 -1 838 -1 c 0,57,58
 780 -1 780 -1 750.5 26 c 128,-1,59
 721 53 721 53 721 90 c 0,60,61
 721 108 721 108 727 131 c 2,62,-1
 866 650 l 2,63,64
 874 679 874 679 874 703 c 0,65,66
 874 729 874 729 865.5 752 c 128,-1,67
 857 775 857 775 840 792.5 c 128,-1,68
 823 810 823 810 797 820 c 128,-1,69
 771 830 771 830 738 830 c 0,70,71
 692 830 692 830 644.5 810.5 c 128,-1,72
 597 791 597 791 556.5 758.5 c 128,-1,73
 516 726 516 726 486 684 c 128,-1,74
 456 642 456 642 444 596 c 2,0,-1
EndSplineSet
EndChar
StartChar: o
Encoding: 111 111 17
Width: 993
Flags: W
LayerCount: 2
Back
Fore
SplineSet
714 1038 m 0,0,1
 788 1038 788 1038 849.5 1016 c 128,-1,2
 911 994 911 994 954 951 c 128,-1,3
 997 908 997 908 1021.5 845.5 c 128,-1,4
 1046 783 1046 783 1046 704 c 256,5,6
 1046 625 1046 625 1027.5 542.5 c 128,-1,7
 1009 460 1009 460 978 384 c 128,-1,8
 947 308 947 308 907.5 243 c 128,-1,9
 868 178 868 178 825 136 c 0,10,11
 686 0 686 0 491 0 c 0,12,13
 414 0 414 0 352.5 22.5 c 128,-1,14
 291 45 291 45 248 88 c 128,-1,15
 205 131 205 131 182.5 193.5 c 128,-1,16
 160 256 160 256 160 334 c 256,17,18
 160 412 160 412 178.5 494.5 c 128,-1,19
 197 577 197 577 227 653 c 128,-1,20
 257 729 257 729 297.5 794 c 128,-1,21
 338 859 338 859 381 902 c 0,22,23
 518 1038 518 1038 714 1038 c 0,0,1
771 824 m 1,24,25
 744 830 744 830 714 830 c 0,26,27
 596 830 596 830 516 744.5 c 128,-1,28
 436 659 436 659 392 492 c 0,29,30
 368 401 368 401 368 334 c 0,31,32
 368 300 368 300 373.5 276 c 128,-1,33
 379 252 379 252 393.5 236.5 c 128,-1,34
 408 221 408 221 432 214 c 128,-1,35
 456 207 456 207 491 207 c 0,36,37
 610 207 610 207 689.5 293 c 128,-1,38
 769 379 769 379 814 545 c 0,39,40
 838 637 838 637 838 704 c 0,41,42
 838 757 838 757 824.5 784 c 128,-1,43
 811 811 811 811 771 824 c 1,24,25
EndSplineSet
EndChar
StartChar: r
Encoding: 114 114 20
Width: 985
Flags: W
LayerCount: 2
Back
Fore
SplineSet
510 596 m 2,0,-1
 370 77 l 1,1,2
 350 -1 350 -1 281 -1 c 0,3,4
 224 -1 224 -1 194.5 26.5 c 128,-1,5
 165 54 165 54 165 92 c 0,6,7
 165 101 165 101 166 110.5 c 128,-1,8
 167 120 167 120 170 131 c 2,9,-1
 393 960 l 2,10,11
 414 1039 414 1039 483 1039 c 0,12,13
 515 1039 515 1039 542 1024.5 c 128,-1,14
 569 1010 569 1010 585 982 c 1,15,16
 692 1038 692 1038 804 1038 c 0,17,18
 851 1038 851 1038 895.5 1026.5 c 128,-1,19
 940 1015 940 1015 979.5 993.5 c 128,-1,20
 1019 972 1019 972 1050.5 941 c 128,-1,21
 1082 910 1082 910 1104 871 c 1,22,23
 1122 835 1122 835 1122 810 c 0,24,25
 1122 793 1122 793 1112.5 776 c 128,-1,26
 1103 759 1103 759 1086 744.5 c 128,-1,27
 1069 730 1069 730 1048 720.5 c 128,-1,28
 1027 711 1027 711 1003 711 c 0,29,30
 955 711 955 711 924 769 c 0,31,32
 908 798 908 798 876 814 c 128,-1,33
 844 830 844 830 804 830 c 0,34,35
 758 830 758 830 710.5 810.5 c 128,-1,36
 663 791 663 791 622.5 758.5 c 128,-1,37
 582 726 582 726 552 684 c 128,-1,38
 522 642 522 642 510 596 c 2,0,-1
EndSplineSet
EndChar
StartChar: u
Encoding: 117 117 23
Width: 1033
Flags: W
LayerCount: 2
Back
Fore
SplineSet
783 441 m 2,0,-1
 922 960 l 1,1,2
 942 1040 942 1040 1010 1040 c 0,3,4
 1039 1040 1039 1040 1061 1032 c 128,-1,5
 1083 1024 1083 1024 1097.5 1010.5 c 128,-1,6
 1112 997 1112 997 1120 980.5 c 128,-1,7
 1128 964 1128 964 1128 945 c 0,8,9
 1128 928 1128 928 1122 907 c 2,10,-1
 900 77 l 2,11,12
 880 -1 880 -1 811 -1 c 0,13,14
 776 -1 776 -1 749.5 13 c 128,-1,15
 723 27 723 27 709 56 c 1,16,17
 599 0 599 0 489 0 c 0,18,19
 419 0 419 0 356.5 24 c 128,-1,20
 294 48 294 48 247 92.5 c 128,-1,21
 200 137 200 137 173 198 c 128,-1,22
 146 259 146 259 146 334 c 0,23,24
 146 386 146 386 161 441 c 2,25,-1
 300 960 l 1,26,27
 320 1040 320 1040 387 1040 c 0,28,29
 445 1040 445 1040 475.5 1011.5 c 128,-1,30
 506 983 506 983 506 945 c 0,31,32
 506 928 506 928 500 907 c 2,33,-1
 361 388 l 2,34,35
 354 364 354 364 354 334 c 0,36,37
 354 272 354 272 390.5 239.5 c 128,-1,38
 427 207 427 207 489 207 c 0,39,40
 535 207 535 207 581.5 226 c 128,-1,41
 628 245 628 245 669 277.5 c 128,-1,42
 710 310 710 310 740 352 c 128,-1,43
 770 394 770 394 783 441 c 2,0,-1
EndSplineSet
EndChar
StartChar: v
Encoding: 118 118 24
Width: 1079
Flags: W
LayerCount: 2
Back
Fore
SplineSet
294 923 m 2,0,1
 293 928 293 928 293 932 c 128,-1,2
 293 936 293 936 293 940 c 0,3,4
 293 988 293 988 320 1013 c 128,-1,5
 347 1038 347 1038 403 1038 c 0,6,7
 488 1038 488 1038 499 944 c 2,8,-1
 557 407 l 1,9,-1
 932 990 l 2,10,11
 965 1043 965 1043 1010 1043 c 0,12,13
 1032 1043 1032 1043 1053 1033 c 128,-1,14
 1074 1023 1074 1023 1091 1008.5 c 128,-1,15
 1108 994 1108 994 1117.5 975.5 c 128,-1,16
 1127 957 1127 957 1127 940 c 0,17,18
 1127 911 1127 911 1106 878 c 2,19,-1
 572 48 l 2,20,21
 540 0 540 0 479 0 c 0,22,23
 392 0 392 0 382 92 c 2,24,-1
 294 923 l 2,0,1
EndSplineSet
EndChar
StartChar: w
Encoding: 119 119 25
Width: 1695
Flags: W
LayerCount: 2
Back
Fore
SplineSet
298 923 m 2,0,1
 297 928 297 928 297 932 c 128,-1,2
 297 936 297 936 297 940 c 0,3,4
 297 988 297 988 324 1013 c 128,-1,5
 351 1038 351 1038 407 1038 c 0,6,7
 492 1038 492 1038 503 944 c 2,8,-1
 561 407 l 1,9,-1
 928 979 l 1,10,11
 953 1029 953 1029 1011 1037 c 1,12,-1
 1019 1037 l 2,13,14
 1045 1037 1045 1037 1065 1028 c 128,-1,15
 1085 1019 1085 1019 1098.5 1004.5 c 128,-1,16
 1112 990 1112 990 1119 970.5 c 128,-1,17
 1126 951 1126 951 1126 931 c 1,18,-1
 1182 407 l 1,19,-1
 1557 990 l 2,20,21
 1590 1043 1590 1043 1636 1043 c 0,22,23
 1659 1043 1659 1043 1680 1033 c 128,-1,24
 1701 1023 1701 1023 1717.5 1008 c 128,-1,25
 1734 993 1734 993 1743.5 974.5 c 128,-1,26
 1753 956 1753 956 1753 940 c 1,27,28
 1752 926 1752 926 1747 910 c 128,-1,29
 1742 894 1742 894 1732 878 c 2,30,-1
 1197 48 l 2,31,32
 1166 0 1166 0 1105 0 c 0,33,34
 1016 0 1016 0 1007 92 c 2,35,-1
 950 629 l 1,36,-1
 576 48 l 2,37,38
 544 0 544 0 483 0 c 0,39,40
 396 0 396 0 386 92 c 2,41,-1
 298 923 l 2,0,1
EndSplineSet
EndChar
StartChar: x
Encoding: 120 120 26
Width: 1081
Flags: W
LayerCount: 2
Back
Fore
SplineSet
314 888 m 2,0,1
 300 918 300 918 300 942 c 0,2,3
 300 958 300 958 308.5 976 c 128,-1,4
 317 994 317 994 333.5 1008.5 c 128,-1,5
 350 1023 350 1023 371.5 1032.5 c 128,-1,6
 393 1042 393 1042 419 1042 c 0,7,8
 471 1040 471 1040 501 979 c 2,9,-1
 639 694 l 1,10,-1
 957 1007 l 2,11,12
 996 1044 996 1044 1029 1044 c 0,13,14
 1047 1044 1047 1044 1066.5 1033.5 c 128,-1,15
 1086 1023 1086 1023 1101.5 1007 c 128,-1,16
 1117 991 1117 991 1127.5 971 c 128,-1,17
 1138 951 1138 951 1138 934 c 0,18,19
 1138 895 1138 895 1102 860 c 2,20,-1
 733 497 l 1,21,-1
 901 148 l 2,22,23
 916 117 916 117 916 92 c 0,24,25
 916 77 916 77 907 60 c 128,-1,26
 898 43 898 43 883 29 c 128,-1,27
 868 15 868 15 846.5 6 c 128,-1,28
 825 -3 825 -3 798 -3 c 0,29,30
 745 -3 745 -3 715 59 c 2,31,-1
 578 344 l 1,32,-1
 258 30 l 2,33,34
 221 -5 221 -5 185 -5 c 0,35,36
 167 -5 167 -5 148 5.5 c 128,-1,37
 129 16 129 16 113 31.5 c 128,-1,38
 97 47 97 47 87 66 c 128,-1,39
 77 85 77 85 77 103 c 256,40,41
 77 121 77 121 85 140 c 128,-1,42
 93 159 93 159 113 178 c 2,43,-1
 483 540 l 1,44,-1
 314 888 l 2,0,1
EndSplineSet
EndChar
StartChar: z
Encoding: 122 122 29
Width: 997
Flags: W
LayerCount: 2
Back
Fore
SplineSet
424 830 m 2,0,1
 320 830 320 830 320 934 c 256,2,3
 320 1038 320 1038 424 1038 c 2,4,-1
 1049 1038 l 2,5,6
 1153 1038 1153 1038 1153 934 c 0,7,8
 1153 886 1153 886 1115 854 c 1,9,-1
 455 207 l 1,10,-1
 824 207 l 2,11,12
 928 207 928 207 928 104 c 0,13,14
 928 0 928 0 824 0 c 2,15,-1
 201 1 l 2,16,17
 176 1 176 1 156 11.5 c 128,-1,18
 136 22 136 22 121.5 37.5 c 128,-1,19
 107 53 107 53 99.5 70.5 c 128,-1,20
 92 88 92 88 92 103 c 0,21,22
 92 121 92 121 100.5 140 c 128,-1,23
 109 159 109 159 129 178 c 2,24,-1
 794 830 l 1,25,-1
 424 830 l 2,0,1
EndSplineSet
EndChar
StartChar: braceright
Encoding: 125 125 203
Width: 1174
Flags: W
LayerCount: 2
Back
Fore
SplineSet
1167 736 m 1,0,-1
 585 645 l 1,1,-1
 2 553 l 1,2,-1
 1 733 l 1,3,-1
 1 912 l 1,4,-1
 585 824 l 1,5,-1
 1167 736 l 1,0,-1
EndSplineSet
EndChar
StartChar: currency
Encoding: 164 164 211
Width: 1087
Flags: W
LayerCount: 2
Back
Fore
SplineSet
841 843 m 0,0,1
 868 784 868 784 870.5 721 c 128,-1,2
 873 658 873 658 850 596 c 0,3,4
 844 579 844 579 836 563 c 1,5,-1
 941 458 l 2,6,7
 957 442 957 442 964 423 c 128,-1,8
 971 404 971 404 971 384 c 128,-1,9
 971 364 971 364 964 345 c 128,-1,10
 957 326 957 326 941 311 c 1,11,12
 926 295 926 295 907 288 c 128,-1,13
 888 281 888 281 868 281 c 128,-1,14
 848 281 848 281 829 288.5 c 128,-1,15
 810 296 810 296 795 312 c 2,16,-1
 689 418 l 1,17,18
 679 413 679 413 670 409 c 0,19,20
 611 383 611 383 547.5 381.5 c 128,-1,21
 484 380 484 380 423 404 c 0,22,23
 408 409 408 409 394 416 c 1,24,-1
 288 311 l 2,25,26
 273 295 273 295 254 288 c 128,-1,27
 235 281 235 281 215 281 c 128,-1,28
 195 281 195 281 175.5 288 c 128,-1,29
 156 295 156 295 141 311 c 0,30,31
 126 326 126 326 118.5 345 c 128,-1,32
 111 364 111 364 111 384 c 128,-1,33
 111 404 111 404 119 423 c 128,-1,34
 127 442 127 442 142 457 c 2,35,-1
 248 563 l 1,36,37
 243 573 243 573 239 584 c 0,38,39
 214 643 214 643 212.5 705.5 c 128,-1,40
 211 768 211 768 234 830 c 1,41,42
 241 845 241 845 248 859 c 1,43,-1
 141 965 l 2,44,45
 127 980 127 980 118.5 999 c 128,-1,46
 110 1018 110 1018 110 1038 c 128,-1,47
 110 1058 110 1058 117.5 1077.5 c 128,-1,48
 125 1097 125 1097 141 1111 c 1,49,50
 155 1127 155 1127 174.5 1134.5 c 128,-1,51
 194 1142 194 1142 214 1142 c 128,-1,52
 234 1142 234 1142 253 1134.5 c 128,-1,53
 272 1127 272 1127 288 1111 c 2,54,-1
 395 1004 l 1,55,56
 403 1009 403 1009 412 1012 c 0,57,58
 471 1038 471 1038 534 1040 c 128,-1,59
 597 1042 597 1042 658 1019 c 0,60,61
 674 1012 674 1012 690 1005 c 1,62,-1
 796 1111 l 2,63,64
 810 1125 810 1125 829 1133.5 c 128,-1,65
 848 1142 848 1142 868 1142 c 128,-1,66
 888 1142 888 1142 907.5 1134.5 c 128,-1,67
 927 1127 927 1127 942 1111 c 1,68,69
 957 1097 957 1097 964.5 1077.5 c 128,-1,70
 972 1058 972 1058 972 1038 c 128,-1,71
 972 1018 972 1018 964.5 999 c 128,-1,72
 957 980 957 980 942 964 c 2,73,-1
 835 857 l 1,74,75
 838 850 838 850 841 843 c 0,0,1
663 711 m 1,76,77
 661 738 661 738 653.5 758.5 c 128,-1,78
 646 779 646 779 627 797 c 0,79,80
 604 820 604 820 578.5 827 c 128,-1,81
 553 834 553 834 530.5 831.5 c 128,-1,82
 508 829 508 829 488 819 c 128,-1,83
 468 809 468 809 456 797 c 0,84,85
 442 782 442 782 432.5 761.5 c 128,-1,86
 423 741 423 741 421.5 717.5 c 128,-1,87
 420 694 420 694 427.5 670.5 c 128,-1,88
 435 647 435 647 456 625 c 0,89,90
 468 613 468 613 487 603 c 128,-1,91
 506 593 506 593 529.5 590 c 128,-1,92
 553 587 553 587 578.5 594 c 128,-1,93
 604 601 604 601 628 625 c 0,94,95
 644 641 644 641 653.5 664 c 128,-1,96
 663 687 663 687 663 711 c 1,76,77
EndSplineSet
EndChar
StartChar: yen
Encoding: 165 165 195
Width: 1031
Flags: W
LayerCount: 2
Back
Fore
SplineSet
113 104 m 1,0,1
 60 105 60 105 35 130.5 c 128,-1,2
 10 156 10 156 10 207 c 1,3,4
 15 311 15 311 113 312 c 1,5,-1
 385 312 l 1,6,-1
 415 420 l 1,7,-1
 397 518 l 1,8,-1
 224 518 l 2,9,10
 122 518 122 518 121 622 c 1,11,12
 125 722 125 722 224 725 c 1,13,-1
 360 725 l 1,14,-1
 252 1331 l 2,15,16
 249 1346 249 1346 249 1360 c 0,17,18
 249 1401 249 1401 278 1427 c 128,-1,19
 307 1453 307 1453 364 1453 c 0,20,21
 439 1453 439 1453 455 1367 c 2,22,-1
 570 725 l 1,23,-1
 614 725 l 1,24,-1
 1099 1408 l 2,25,26
 1134 1457 1134 1457 1177 1457 c 0,27,28
 1198 1457 1198 1457 1218 1447.5 c 128,-1,29
 1238 1438 1238 1438 1255 1422.5 c 128,-1,30
 1272 1407 1272 1407 1282 1389 c 128,-1,31
 1292 1371 1292 1371 1292 1354 c 0,32,33
 1292 1325 1292 1325 1267 1288 c 2,34,-1
 868 725 l 1,35,-1
 919 725 l 2,36,37
 969 725 969 725 995.5 699.5 c 128,-1,38
 1022 674 1022 674 1022 622 c 0,39,40
 1022 571 1022 571 995.5 545.5 c 128,-1,41
 969 520 969 520 919 518 c 1,42,-1
 720 518 l 1,43,-1
 616 370 l 1,44,-1
 599 312 l 1,45,-1
 807 312 l 2,46,47
 911 312 911 312 911 207 c 0,48,49
 911 104 911 104 807 104 c 2,50,-1
 543 104 l 1,51,-1
 537 77 l 1,52,53
 527 37 527 37 504 18 c 128,-1,54
 481 -1 481 -1 447 -1 c 0,55,56
 388 -1 388 -1 358.5 27 c 128,-1,57
 329 55 329 55 329 92 c 0,58,59
 329 100 329 100 330 104 c 1,60,-1
 113 104 l 1,0,1
EndSplineSet
EndChar
StartChar: guillemotleft
Encoding: 171 171 190
Width: 1713
Flags: W
LayerCount: 2
Back
Fore
SplineSet
1676 1023 m 2,0,1
 1700 1037 1700 1037 1726 1037 c 0,2,3
 1746 1037 1746 1037 1765.5 1029 c 128,-1,4
 1785 1021 1785 1021 1799 1007.5 c 128,-1,5
 1813 994 1813 994 1821.5 975 c 128,-1,6
 1830 956 1830 956 1830 935 c 0,7,8
 1830 904 1830 904 1815.5 881 c 128,-1,9
 1801 858 1801 858 1778 844 c 2,10,-1
 1176 503 l 1,11,-1
 1569 184 l 2,12,13
 1607 154 1607 154 1607 102 c 0,14,15
 1607 81 1607 81 1598.5 62.5 c 128,-1,16
 1590 44 1590 44 1576.5 30.5 c 128,-1,17
 1563 17 1563 17 1544.5 9 c 128,-1,18
 1526 1 1526 1 1507 1 c 0,19,20
 1467 1 1467 1 1439 24 c 2,21,-1
 931 436 l 2,22,23
 930 437 930 437 923 442.5 c 128,-1,24
 916 448 916 448 908.5 458.5 c 128,-1,25
 901 469 901 469 895 483.5 c 128,-1,26
 889 498 889 498 889 518 c 0,27,28
 889 580 889 580 942 608 c 1,29,-1
 1676 1023 l 2,0,1
918 1023 m 2,30,31
 942 1037 942 1037 968 1037 c 0,32,33
 989 1037 989 1037 1008 1029 c 128,-1,34
 1027 1021 1027 1021 1041 1007.5 c 128,-1,35
 1055 994 1055 994 1063.5 975 c 128,-1,36
 1072 956 1072 956 1072 935 c 0,37,38
 1072 904 1072 904 1058 881 c 128,-1,39
 1044 858 1044 858 1020 844 c 2,40,-1
 419 503 l 1,41,-1
 812 184 l 2,42,43
 849 154 849 154 849 102 c 0,44,45
 849 81 849 81 840.5 62.5 c 128,-1,46
 832 44 832 44 818.5 30.5 c 128,-1,47
 805 17 805 17 786.5 9 c 128,-1,48
 768 1 768 1 749 1 c 0,49,50
 710 1 710 1 681 24 c 2,51,-1
 173 436 l 2,52,53
 172 437 172 437 165 442.5 c 128,-1,54
 158 448 158 448 150.5 458.5 c 128,-1,55
 143 469 143 469 137.5 483.5 c 128,-1,56
 132 498 132 498 132 518 c 0,57,58
 132 549 132 549 145.5 571.5 c 128,-1,59
 159 594 159 594 185 608 c 2,60,-1
 918 1023 l 2,30,31
EndSplineSet
EndChar
StartChar: mu
Encoding: 181 181 111
Width: 1033
Flags: W
LayerCount: 2
Back
Fore
SplineSet
401 537 m 1,0,-1
 357 372 l 1,1,2
 354 353 354 353 354 334 c 0,3,4
 354 272 354 272 390.5 239.5 c 128,-1,5
 427 207 427 207 489 207 c 0,6,7
 530 207 530 207 573 223 c 128,-1,8
 616 239 616 239 655 266 c 128,-1,9
 694 293 694 293 725 330.5 c 128,-1,10
 756 368 756 368 773 411 c 1,11,-1
 857 718 l 1,12,-1
 922 960 l 1,13,14
 942 1040 942 1040 1010 1040 c 0,15,16
 1039 1040 1039 1040 1061 1032 c 128,-1,17
 1083 1024 1083 1024 1097.5 1010.5 c 128,-1,18
 1112 997 1112 997 1120 980.5 c 128,-1,19
 1128 964 1128 964 1128 945 c 0,20,21
 1128 928 1128 928 1122 907 c 2,22,-1
 932 199 l 1,23,24
 996 171 996 171 996 104 c 1,25,26
 983 12 983 12 891 0 c 1,27,28
 847 -1 847 -1 810.5 17.5 c 128,-1,29
 774 36 774 36 751 69 c 1,30,-1
 742 81 l 1,31,32
 594 0 594 0 489 0 c 0,33,34
 433 0 433 0 376 16.5 c 128,-1,35
 319 33 319 33 275 67 c 1,36,-1
 167 -337 l 2,37,38
 156 -376 156 -376 133.5 -396 c 128,-1,39
 111 -416 111 -416 79 -416 c 0,40,41
 50 -416 50 -416 28 -408 c 128,-1,42
 6 -400 6 -400 -9 -387 c 128,-1,43
 -24 -374 -24 -374 -31 -358 c 128,-1,44
 -38 -342 -38 -342 -38 -324 c 1,45,46
 -39 -314 -39 -314 -37 -304.5 c 128,-1,47
 -35 -295 -35 -295 -32 -284 c 2,48,-1
 155 417 l 1,49,50
 156 427 156 427 161 441 c 1,51,-1
 300 960 l 1,52,53
 320 1040 320 1040 387 1040 c 0,54,55
 445 1040 445 1040 475.5 1011.5 c 128,-1,56
 506 983 506 983 506 945 c 0,57,58
 506 928 506 928 500 907 c 2,59,-1
 400 537 l 1,60,-1
 401 537 l 1,0,-1
EndSplineSet
EndChar
StartChar: paragraph
Encoding: 182 182 110
Width: 948
Flags: W
LayerCount: 2
Back
Fore
SplineSet
433 1451 m 1,0,1
 450 1453 450 1453 467 1454.5 c 128,-1,2
 484 1456 484 1456 502 1456 c 0,3,4
 524 1456 524 1456 543.5 1454.5 c 128,-1,5
 563 1453 563 1453 583 1450 c 1,6,-1
 946 1449 l 1,7,8
 1025 1426 1025 1426 1025 1360 c 0,9,10
 1025 1342 1025 1342 1019 1322 c 2,11,-1
 854 705 l 2,12,13
 852 697 852 697 851 694 c 2,14,-1
 686 77 l 2,15,16
 665 -1 665 -1 597 -1 c 0,17,18
 539 -1 539 -1 509.5 26 c 128,-1,19
 480 53 480 53 480 90 c 0,20,21
 480 108 480 108 485 131 c 1,22,-1
 781 1241 l 1,23,-1
 514 1241 l 1,24,-1
 203 77 l 2,25,26
 183 -1 183 -1 114 -1 c 0,27,28
 57 -1 57 -1 27.5 26.5 c 128,-1,29
 -2 54 -2 54 -2 92 c 0,30,31
 -2 101 -2 101 -1 110.5 c 128,-1,32
 0 120 0 120 3 131 c 2,33,-1
 92 463 l 1,34,35
 22 505 22 505 -15 578 c 128,-1,36
 -52 651 -52 651 -52 753 c 0,37,38
 -52 830 -52 830 -34 913 c 128,-1,39
 -16 996 -16 996 14.5 1072 c 128,-1,40
 45 1148 45 1148 85.5 1213 c 128,-1,41
 126 1278 126 1278 169 1321 c 0,42,43
 281 1431 281 1431 430 1451 c 1,44,-1
 433 1451 l 1,0,1
EndSplineSet
EndChar
StartChar: cedilla
Encoding: 184 184 126
Width: 762
Flags: W
LayerCount: 2
Back
Fore
SplineSet
99 -284 m 0,0,1
 118 -204 118 -204 187 -204 c 0,2,3
 245 -204 245 -204 275 -232.5 c 128,-1,4
 305 -261 305 -261 305 -299 c 0,5,6
 305 -314 305 -314 300.5 -334 c 128,-1,7
 296 -354 296 -354 296 -365 c 0,8,9
 296 -385 296 -385 308 -399.5 c 128,-1,10
 320 -414 320 -414 352 -414 c 0,11,12
 378 -414 378 -414 407.5 -400.5 c 128,-1,13
 437 -387 437 -387 461.5 -365 c 128,-1,14
 486 -343 486 -343 502.5 -314.5 c 128,-1,15
 519 -286 519 -286 519 -256 c 0,16,17
 519 -235 519 -235 506.5 -220.5 c 128,-1,18
 494 -206 494 -206 463 -206 c 0,19,20
 360 -206 360 -206 360 -103 c 0,21,22
 360 -84 360 -84 365 -71 c 1,23,-1
 419 131 l 1,24,25
 439 210 439 210 506 210 c 0,26,27
 536 210 536 210 558 202.5 c 128,-1,28
 580 195 580 195 594.5 181.5 c 128,-1,29
 609 168 609 168 617 151 c 128,-1,30
 625 134 625 134 625 115 c 0,31,32
 625 97 625 97 619 77 c 2,33,-1
 591 -28 l 1,34,35
 655 -62 655 -62 690.5 -123.5 c 128,-1,36
 726 -185 726 -185 726 -256 c 0,37,38
 726 -324 726 -324 695 -389.5 c 128,-1,39
 664 -455 664 -455 612.5 -506.5 c 128,-1,40
 561 -558 561 -558 493.5 -589.5 c 128,-1,41
 426 -621 426 -621 352 -621 c 0,42,43
 296 -621 296 -621 248 -602 c 128,-1,44
 200 -583 200 -583 165 -548.5 c 128,-1,45
 130 -514 130 -514 109.5 -467.5 c 128,-1,46
 89 -421 89 -421 89 -365 c 0,47,48
 89 -322 89 -322 99 -284 c 0,0,1
EndSplineSet
EndChar
StartChar: Adieresis
Encoding: 196 196 85
Width: 1196
Flags: W
LayerCount: 2
Back
Fore
SplineSet
272 50 m 2,0,1
 240 -4 240 -4 192 -4 c 0,2,3
 169 -4 169 -4 148 5.5 c 128,-1,4
 127 15 127 15 110.5 29 c 128,-1,5
 94 43 94 43 85 61 c 128,-1,6
 76 79 76 79 76 95 c 1,7,8
 77 109 77 109 81 125 c 128,-1,9
 85 141 85 141 94 157 c 2,10,-1
 844 1401 l 2,11,12
 877 1456 877 1456 924 1456 c 0,13,14
 942 1456 942 1456 961.5 1449 c 128,-1,15
 981 1442 981 1442 996.5 1428.5 c 128,-1,16
 1012 1415 1012 1415 1023 1396.5 c 128,-1,17
 1034 1378 1034 1378 1036 1355 c 2,18,-1
 1117 110 l 1,19,-1
 1117 96 l 2,20,21
 1117 1 1117 1 1011 1 c 0,22,23
 915 1 915 1 911 97 c 1,24,-1
 896 312 l 1,25,-1
 429 312 l 1,26,-1
 272 50 l 2,0,1
850 1012 m 1,27,-1
 554 519 l 1,28,-1
 882 519 l 1,29,-1
 850 1012 l 1,27,-1
1136 1711 m 1,30,31
 1157 1790 1157 1790 1223 1790 c 0,32,33
 1252 1790 1252 1790 1274 1782 c 128,-1,34
 1296 1774 1296 1774 1311 1760.5 c 128,-1,35
 1326 1747 1326 1747 1333.5 1730.5 c 128,-1,36
 1341 1714 1341 1714 1341 1695 c 0,37,38
 1341 1678 1341 1678 1336 1657 c 1,39,-1
 1336 1655 l 1,40,41
 1313 1575 1313 1575 1248 1575 c 0,42,43
 1189 1575 1189 1575 1159 1602.5 c 128,-1,44
 1129 1630 1129 1630 1129 1668 c 0,45,46
 1129 1685 1129 1685 1135 1708 c 1,47,-1
 1136 1711 l 1,30,31
649 1711 m 1,48,49
 669 1790 669 1790 736 1790 c 0,50,51
 765 1790 765 1790 787 1782 c 128,-1,52
 809 1774 809 1774 823.5 1760.5 c 128,-1,53
 838 1747 838 1747 846 1730.5 c 128,-1,54
 854 1714 854 1714 854 1695 c 0,55,56
 854 1678 854 1678 848 1657 c 1,57,-1
 848 1655 l 1,58,59
 825 1575 825 1575 761 1575 c 0,60,61
 702 1575 702 1575 672 1602.5 c 128,-1,62
 642 1630 642 1630 642 1668 c 0,63,64
 642 1685 642 1685 648 1708 c 1,65,-1
 649 1711 l 1,48,49
EndSplineSet
EndChar
StartChar: AE
Encoding: 198 198 114
Width: 1939
Flags: W
LayerCount: 2
Back
Fore
SplineSet
2028 1452 m 2,0,1
 2133 1452 2133 1452 2133 1348 c 0,2,3
 2133 1245 2133 1245 2028 1245 c 2,4,-1
 1449 1245 l 1,5,-1
 1337 830 l 1,6,-1
 1654 830 l 2,7,8
 1758 830 1758 830 1758 726 c 256,9,10
 1758 622 1758 622 1654 622 c 2,11,-1
 1281 622 l 1,12,-1
 1170 207 l 1,13,-1
 1695 207 l 2,14,15
 1798 207 1798 207 1798 104 c 0,16,17
 1798 0 1798 0 1695 0 c 2,18,-1
 1035 0 l 2,19,20
 983 0 983 0 956.5 28.5 c 128,-1,21
 930 57 930 57 930 92 c 0,22,23
 930 101 930 101 931 110.5 c 128,-1,24
 932 120 932 120 935 131 c 2,25,-1
 983 312 l 1,26,-1
 429 312 l 1,27,-1
 272 50 l 2,28,29
 240 -4 240 -4 192 -4 c 0,30,31
 169 -4 169 -4 148 5.5 c 128,-1,32
 127 15 127 15 110.5 29 c 128,-1,33
 94 43 94 43 85 61 c 128,-1,34
 76 79 76 79 76 95 c 1,35,36
 77 109 77 109 81 125 c 128,-1,37
 85 141 85 141 94 157 c 2,38,-1
 835 1388 l 1,39,40
 844 1419 844 1419 870 1437.5 c 128,-1,41
 896 1456 896 1456 924 1456 c 0,42,43
 939 1456 939 1456 950 1452 c 1,44,-1
 2028 1452 l 2,0,1
554 519 m 1,45,-1
 1039 519 l 1,46,-1
 1234 1245 l 1,47,-1
 982 1245 l 1,48,-1
 850 1012 l 1,49,-1
 554 519 l 1,45,-1
EndSplineSet
EndChar
StartChar: Ccedilla
Encoding: 199 199 128
Width: 1157
Flags: W
LayerCount: 2
Back
Fore
SplineSet
113 -284 m 1,0,1
 132 -204 132 -204 200 -204 c 0,2,3
 258 -204 258 -204 288 -232.5 c 128,-1,4
 318 -261 318 -261 318 -299 c 0,5,6
 318 -314 318 -314 314 -334 c 128,-1,7
 310 -354 310 -354 310 -365 c 0,8,9
 310 -385 310 -385 322 -399.5 c 128,-1,10
 334 -414 334 -414 366 -414 c 0,11,12
 392 -414 392 -414 421.5 -400.5 c 128,-1,13
 451 -387 451 -387 475.5 -365 c 128,-1,14
 500 -343 500 -343 516.5 -314.5 c 128,-1,15
 533 -286 533 -286 533 -256 c 0,16,17
 533 -235 533 -235 520.5 -220.5 c 128,-1,18
 508 -206 508 -206 477 -206 c 0,19,20
 373 -206 373 -206 373 -103 c 0,21,22
 373 -85 373 -85 378 -71 c 1,23,-1
 402 18 l 1,24,25
 335 34 335 34 287.5 72 c 128,-1,26
 240 110 240 110 210 161.5 c 128,-1,27
 180 213 180 213 165.5 275.5 c 128,-1,28
 151 338 151 338 151 404 c 0,29,30
 151 487 151 487 170 578 c 128,-1,31
 189 669 189 669 211 753 c 0,32,33
 231 826 231 826 257.5 907 c 128,-1,34
 284 988 284 988 322 1065.5 c 128,-1,35
 360 1143 360 1143 411 1213 c 128,-1,36
 462 1283 462 1283 531 1336.5 c 128,-1,37
 600 1390 600 1390 689.5 1421 c 128,-1,38
 779 1452 779 1452 892 1452 c 0,39,40
 963 1452 963 1452 1026.5 1433 c 128,-1,41
 1090 1414 1090 1414 1142 1378 c 128,-1,42
 1194 1342 1194 1342 1232.5 1291.5 c 128,-1,43
 1271 1241 1271 1241 1291 1178 c 0,44,45
 1299 1152 1299 1152 1299 1134 c 256,46,47
 1299 1116 1299 1116 1291 1099 c 128,-1,48
 1283 1082 1283 1082 1268 1068.5 c 128,-1,49
 1253 1055 1253 1055 1231 1047.5 c 128,-1,50
 1209 1040 1209 1040 1180 1040 c 0,51,52
 1118 1040 1118 1040 1095 1114 c 1,53,54
 1071 1179 1071 1179 1019 1212 c 128,-1,55
 967 1245 967 1245 892 1245 c 0,56,57
 810 1245 810 1245 746.5 1220 c 128,-1,58
 683 1195 683 1195 634.5 1152.5 c 128,-1,59
 586 1110 586 1110 550.5 1055 c 128,-1,60
 515 1000 515 1000 489 940 c 128,-1,61
 463 880 463 880 444.5 818 c 128,-1,62
 426 756 426 756 411 700 c 0,63,64
 391 626 391 626 375 547.5 c 128,-1,65
 359 469 359 469 359 404 c 0,66,67
 359 367 359 367 364.5 334 c 128,-1,68
 370 301 370 301 387 275.5 c 128,-1,69
 404 250 404 250 434 232.5 c 128,-1,70
 464 215 464 215 511 209 c 1,71,-1
 520 209 l 2,72,73
 526 209 526 209 532.5 208.5 c 128,-1,74
 539 208 539 208 546 207 c 1,75,-1
 558 207 l 2,76,77
 604 207 604 207 650 219 c 128,-1,78
 696 231 696 231 739.5 253.5 c 128,-1,79
 783 276 783 276 822.5 307.5 c 128,-1,80
 862 339 862 339 896 379 c 0,81,82
 932 422 932 422 972 422 c 0,83,84
 991 422 991 422 1011 411.5 c 128,-1,85
 1031 401 1031 401 1047 385.5 c 128,-1,86
 1063 370 1063 370 1073.5 350.5 c 128,-1,87
 1084 331 1084 331 1084 314 c 0,88,89
 1084 283 1084 283 1057.5 247.5 c 128,-1,90
 1031 212 1031 212 992 178 c 128,-1,91
 953 144 953 144 908.5 114.5 c 128,-1,92
 864 85 864 85 827 67 c 0,93,94
 719 12 719 12 612 2 c 1,95,-1
 604 -28 l 1,96,97
 669 -62 669 -62 704.5 -123.5 c 128,-1,98
 740 -185 740 -185 740 -256 c 0,99,100
 740 -324 740 -324 709 -389.5 c 128,-1,101
 678 -455 678 -455 626.5 -506.5 c 128,-1,102
 575 -558 575 -558 507 -589.5 c 128,-1,103
 439 -621 439 -621 366 -621 c 0,104,105
 310 -621 310 -621 262 -602 c 128,-1,106
 214 -583 214 -583 178.5 -548.5 c 128,-1,107
 143 -514 143 -514 123 -467.5 c 128,-1,108
 103 -421 103 -421 103 -365 c 0,109,110
 103 -320 103 -320 113 -284 c 1,0,1
EndSplineSet
EndChar
StartChar: Edieresis
Encoding: 203 203 89
Width: 1439
Flags: W
LayerCount: 2
Back
Fore
SplineSet
1267 1452 m 2,0,1
 1371 1452 1371 1452 1371 1348 c 0,2,3
 1371 1245 1371 1245 1267 1245 c 2,4,-1
 517 1245 l 1,5,-1
 405 830 l 1,6,-1
 892 830 l 2,7,8
 996 830 996 830 996 726 c 256,9,10
 996 622 996 622 892 622 c 2,11,-1
 350 622 l 1,12,-1
 239 207 l 1,13,-1
 934 207 l 2,14,15
 1037 207 1037 207 1037 104 c 0,16,17
 1037 0 1037 0 934 0 c 2,18,-1
 103 0 l 2,19,20
 51 0 51 0 24.5 28.5 c 128,-1,21
 -2 57 -2 57 -2 92 c 0,22,23
 -2 101 -2 101 -1 110.5 c 128,-1,24
 0 120 0 120 3 131 c 2,25,-1
 169 748 l 1,26,27
 170 757 170 757 172 759 c 1,28,-1
 336 1370 l 1,29,30
 351 1452 351 1452 437 1452 c 2,31,-1
 1267 1452 l 2,0,1
1088 1754 m 1,32,33
 1109 1833 1109 1833 1175 1833 c 0,34,35
 1204 1833 1204 1833 1226 1825 c 128,-1,36
 1248 1817 1248 1817 1263 1804 c 128,-1,37
 1278 1791 1278 1791 1285.5 1774 c 128,-1,38
 1293 1757 1293 1757 1293 1738 c 0,39,40
 1293 1721 1293 1721 1287 1700 c 1,41,-1
 1287 1698 l 1,42,43
 1265 1619 1265 1619 1200 1619 c 0,44,45
 1141 1619 1141 1619 1111 1646.5 c 128,-1,46
 1081 1674 1081 1674 1081 1711 c 0,47,48
 1081 1729 1081 1729 1087 1751 c 1,49,-1
 1088 1754 l 1,32,33
600 1754 m 1,50,51
 621 1833 621 1833 688 1833 c 0,52,53
 716 1833 716 1833 738.5 1825 c 128,-1,54
 761 1817 761 1817 775.5 1804 c 128,-1,55
 790 1791 790 1791 798 1774 c 128,-1,56
 806 1757 806 1757 806 1738 c 0,57,58
 806 1721 806 1721 800 1700 c 1,59,-1
 800 1698 l 1,60,61
 777 1619 777 1619 712 1619 c 0,62,63
 654 1619 654 1619 624 1646.5 c 128,-1,64
 594 1674 594 1674 594 1711 c 0,65,66
 594 1729 594 1729 599 1751 c 1,67,-1
 600 1754 l 1,50,51
EndSplineSet
EndChar
StartChar: multiply
Encoding: 215 215 144
Width: 888
Flags: W
LayerCount: 2
Back
Fore
SplineSet
297 759 m 2,0,1
 282 788 282 788 282 813 c 0,2,3
 282 828 282 828 291 846 c 128,-1,4
 300 864 300 864 316 878.5 c 128,-1,5
 332 893 332 893 353.5 902.5 c 128,-1,6
 375 912 375 912 401 912 c 0,7,8
 453 910 453 910 484 849 c 1,9,-1
 558 694 l 1,10,-1
 721 867 l 2,11,12
 738 885 738 885 757 894 c 128,-1,13
 776 903 776 903 793 903 c 0,14,15
 811 903 811 903 830.5 892.5 c 128,-1,16
 850 882 850 882 866 866 c 128,-1,17
 882 850 882 850 892 830.5 c 128,-1,18
 902 811 902 811 902 793 c 0,19,20
 903 773 903 773 893 755.5 c 128,-1,21
 883 738 883 738 866 719 c 2,22,-1
 653 497 l 1,23,-1
 756 285 l 2,24,25
 770 254 770 254 770 229 c 0,26,27
 770 213 770 213 761.5 196.5 c 128,-1,28
 753 180 753 180 737.5 165.5 c 128,-1,29
 722 151 722 151 700.5 142.5 c 128,-1,30
 679 134 679 134 653 134 c 0,31,32
 599 134 599 134 570 196 c 1,33,-1
 495 336 l 1,34,-1
 328 169 l 2,35,36
 311 151 311 151 291.5 142.5 c 128,-1,37
 272 134 272 134 255 134 c 0,38,39
 237 134 237 134 218 144 c 128,-1,40
 199 154 199 154 183 170 c 128,-1,41
 167 186 167 186 156.5 205 c 128,-1,42
 146 224 146 224 146 242 c 0,43,44
 146 279 146 279 183 316 c 2,45,-1
 402 540 l 1,46,-1
 297 759 l 2,0,1
EndSplineSet
EndChar
StartChar: igrave
Encoding: 236 236 157
Width: 535
Flags: W
LayerCount: 2
Back
Fore
SplineSet
388 960 m 2,0,1
 409 1039 409 1039 478 1039 c 0,2,3
 535 1039 535 1039 564.5 1011 c 128,-1,4
 594 983 594 983 594 945 c 0,5,6
 594 928 594 928 588 907 c 2,7,-1
 366 77 l 2,8,9
 345 -1 345 -1 276 -1 c 0,10,11
 219 -1 219 -1 189.5 26.5 c 128,-1,12
 160 54 160 54 160 92 c 0,13,14
 160 101 160 101 161 110.5 c 128,-1,15
 162 120 162 120 165 131 c 2,16,-1
 388 960 l 2,0,1
322 1385 m 2,17,18
 303 1410 303 1410 303 1446 c 0,19,20
 303 1467 303 1467 311 1486.5 c 128,-1,21
 319 1506 319 1506 333.5 1519.5 c 128,-1,22
 348 1533 348 1533 367 1541.5 c 128,-1,23
 386 1550 386 1550 407 1550 c 0,24,25
 432 1549 432 1549 454 1537.5 c 128,-1,26
 476 1526 476 1526 489 1508 c 2,27,-1
 642 1300 l 2,28,29
 661 1273 661 1273 661 1241 c 0,30,31
 661 1221 661 1221 654 1201.5 c 128,-1,32
 647 1182 647 1182 633 1167 c 128,-1,33
 619 1152 619 1152 600.5 1143 c 128,-1,34
 582 1134 582 1134 559 1134 c 0,35,36
 532 1134 532 1134 510.5 1146 c 128,-1,37
 489 1158 489 1158 475 1177 c 2,38,-1
 322 1385 l 2,17,18
EndSplineSet
EndChar
StartChar: icircumflex
Encoding: 238 238 159
Width: 535
Flags: W
LayerCount: 2
Back
Fore
SplineSet
388 960 m 2,0,1
 409 1039 409 1039 478 1039 c 0,2,3
 535 1039 535 1039 564.5 1011 c 128,-1,4
 594 983 594 983 594 945 c 0,5,6
 594 928 594 928 588 907 c 2,7,-1
 366 77 l 2,8,9
 345 -1 345 -1 276 -1 c 0,10,11
 219 -1 219 -1 189.5 26.5 c 128,-1,12
 160 54 160 54 160 92 c 0,13,14
 160 101 160 101 161 110.5 c 128,-1,15
 162 120 162 120 165 131 c 2,16,-1
 388 960 l 2,0,1
468 1159 m 1,17,18
 429 1138 429 1138 398 1138 c 0,19,20
 378 1138 378 1138 360.5 1147 c 128,-1,21
 343 1156 343 1156 329.5 1170 c 128,-1,22
 316 1184 316 1184 308 1203 c 128,-1,23
 300 1222 300 1222 300 1241 c 0,24,25
 300 1283 300 1283 340 1322 c 1,26,-1
 528 1469 l 1,27,28
 564 1492 564 1492 595 1492 c 0,29,30
 637 1492 637 1492 673 1452 c 0,31,32
 674 1451 674 1451 701.5 1413.5 c 128,-1,33
 729 1376 729 1376 783 1301 c 1,34,35
 802 1266 802 1266 802 1237 c 0,36,37
 802 1221 802 1221 794.5 1202.5 c 128,-1,38
 787 1184 787 1184 773.5 1169.5 c 128,-1,39
 760 1155 760 1155 741 1145.5 c 128,-1,40
 722 1136 722 1136 700 1136 c 0,41,42
 655 1136 655 1136 616 1178 c 1,43,-1
 572 1240 l 1,44,-1
 468 1159 l 1,17,18
EndSplineSet
EndChar
StartChar: idieresis
Encoding: 239 239 160
Width: 535
Flags: W
LayerCount: 2
Back
Fore
SplineSet
388 960 m 2,0,1
 409 1039 409 1039 478 1039 c 0,2,3
 535 1039 535 1039 564.5 1011 c 128,-1,4
 594 983 594 983 594 945 c 0,5,6
 594 928 594 928 588 907 c 2,7,-1
 366 77 l 2,8,9
 345 -1 345 -1 276 -1 c 0,10,11
 219 -1 219 -1 189.5 26.5 c 128,-1,12
 160 54 160 54 160 92 c 0,13,14
 160 101 160 101 161 110.5 c 128,-1,15
 162 120 162 120 165 131 c 2,16,-1
 388 960 l 2,0,1
638 1372 m 1,17,18
 658 1451 658 1451 725 1451 c 0,19,20
 754 1451 754 1451 776 1443 c 128,-1,21
 798 1435 798 1435 812.5 1421.5 c 128,-1,22
 827 1408 827 1408 835 1391.5 c 128,-1,23
 843 1375 843 1375 843 1356 c 0,24,25
 843 1338 843 1338 837 1318 c 1,26,-1
 837 1316 l 1,27,28
 815 1236 815 1236 750 1236 c 0,29,30
 691 1236 691 1236 661 1263.5 c 128,-1,31
 631 1291 631 1291 631 1329 c 0,32,33
 631 1346 631 1346 637 1369 c 1,34,-1
 638 1372 l 1,17,18
291 1370 m 1,35,36
 312 1449 312 1449 378 1449 c 0,37,38
 407 1449 407 1449 429 1441 c 128,-1,39
 451 1433 451 1433 466 1419.5 c 128,-1,40
 481 1406 481 1406 488.5 1389.5 c 128,-1,41
 496 1373 496 1373 496 1354 c 0,42,43
 496 1337 496 1337 490 1316 c 1,44,-1
 490 1314 l 1,45,46
 468 1234 468 1234 403 1234 c 0,47,48
 344 1234 344 1234 314 1261.5 c 128,-1,49
 284 1289 284 1289 284 1327 c 0,50,51
 284 1344 284 1344 290 1367 c 1,52,-1
 291 1370 l 1,35,36
EndSplineSet
EndChar
StartChar: eth
Encoding: 240 240 183
Width: -996
Flags: W
LayerCount: 2
Back
Fore
SplineSet
-523 1047 m 2,0,1
 -553 1033 -553 1033 -577 1033 c 0,2,3
 -593 1033 -593 1033 -609.5 1042 c 128,-1,4
 -626 1051 -626 1051 -640 1066 c 128,-1,5
 -654 1081 -654 1081 -663.5 1103 c 128,-1,6
 -673 1125 -673 1125 -673 1152 c 1,7,8
 -672 1177 -672 1177 -656.5 1200 c 128,-1,9
 -641 1223 -641 1223 -608 1236 c 1,10,-1
 -567 1254 l 1,11,12
 -629 1281 -629 1281 -629 1341 c 0,13,14
 -629 1369 -629 1369 -621 1390 c 128,-1,15
 -613 1411 -613 1411 -600 1425.5 c 128,-1,16
 -587 1440 -587 1440 -569.5 1447 c 128,-1,17
 -552 1454 -552 1454 -535 1454 c 256,18,19
 -518 1454 -518 1454 -495 1449 c 1,20,21
 -369 1411 -369 1411 -289 1381 c 1,22,-1
 -152 1443 l 2,23,24
 -124 1455 -124 1455 -98 1455 c 0,25,26
 -82 1455 -82 1455 -64.5 1446.5 c 128,-1,27
 -47 1438 -47 1438 -33 1422 c 128,-1,28
 -19 1406 -19 1406 -10 1384 c 128,-1,29
 -1 1362 -1 1362 -1 1337 c 0,30,31
 -1 1283 -1 1283 -66 1254 c 1,32,-1
 -73 1251 l 1,33,34
 -9 1187 -9 1187 22.5 1106 c 128,-1,35
 54 1025 54 1025 54 916 c 0,36,37
 54 782 54 782 4 596 c 0,38,39
 1 581 1 581 -6 572 c 1,40,41
 -30 434 -30 434 -80.5 327.5 c 128,-1,42
 -131 221 -131 221 -201 148.5 c 128,-1,43
 -271 76 -271 76 -358.5 38 c 128,-1,44
 -446 0 -446 0 -546 0 c 0,45,46
 -625 0 -625 0 -686.5 23 c 128,-1,47
 -748 46 -748 46 -790.5 89.5 c 128,-1,48
 -833 133 -833 133 -856 194.5 c 128,-1,49
 -879 256 -879 256 -879 334 c 0,50,51
 -879 410 -879 410 -860.5 492 c 128,-1,52
 -842 574 -842 574 -812 650.5 c 128,-1,53
 -782 727 -782 727 -742 792.5 c 128,-1,54
 -702 858 -702 858 -657 902 c 0,55,56
 -589 970 -589 970 -505.5 1004 c 128,-1,57
 -422 1038 -422 1038 -324 1038 c 0,58,59
 -304 1038 -304 1038 -281 1035.5 c 128,-1,60
 -258 1033 -258 1033 -236.5 1029 c 128,-1,61
 -215 1025 -215 1025 -195.5 1018.5 c 128,-1,62
 -176 1012 -176 1012 -162 1005 c 1,63,64
 -174 1053 -174 1053 -203 1088 c 128,-1,65
 -232 1123 -232 1123 -288 1153 c 1,66,-1
 -523 1047 l 2,0,1
-267 824 m 1,67,68
 -294 830 -294 830 -324 830 c 0,69,70
 -443 830 -443 830 -522 743.5 c 128,-1,71
 -601 657 -601 657 -647 492 c 1,72,73
 -671 401 -671 401 -671 334 c 0,74,75
 -671 300 -671 300 -665 276 c 128,-1,76
 -659 252 -659 252 -644.5 236.5 c 128,-1,77
 -630 221 -630 221 -606 214 c 128,-1,78
 -582 207 -582 207 -546 207 c 0,79,80
 -427 207 -427 207 -347.5 293.5 c 128,-1,81
 -268 380 -268 380 -224 545 c 0,82,83
 -212 593 -212 593 -205.5 631.5 c 128,-1,84
 -199 670 -199 670 -199 704 c 0,85,86
 -199 758 -199 758 -213.5 784.5 c 128,-1,87
 -228 811 -228 811 -267 824 c 1,67,68
EndSplineSet
EndChar
StartChar: odieresis
Encoding: 246 246 92
Width: 957
Flags: W
LayerCount: 2
Back
Fore
SplineSet
719 1038 m 0,0,1
 793 1038 793 1038 854.5 1016 c 128,-1,2
 916 994 916 994 959 951 c 128,-1,3
 1002 908 1002 908 1026 845.5 c 128,-1,4
 1050 783 1050 783 1050 704 c 256,5,6
 1050 625 1050 625 1032 542.5 c 128,-1,7
 1014 460 1014 460 983 384 c 128,-1,8
 952 308 952 308 912.5 243 c 128,-1,9
 873 178 873 178 829 136 c 0,10,11
 691 0 691 0 496 0 c 0,12,13
 419 0 419 0 357.5 22.5 c 128,-1,14
 296 45 296 45 253 88 c 128,-1,15
 210 131 210 131 187.5 193.5 c 128,-1,16
 165 256 165 256 165 334 c 256,17,18
 165 412 165 412 183 494.5 c 128,-1,19
 201 577 201 577 231.5 653 c 128,-1,20
 262 729 262 729 302.5 794 c 128,-1,21
 343 859 343 859 386 902 c 0,22,23
 523 1038 523 1038 719 1038 c 0,0,1
776 824 m 1,24,25
 749 830 749 830 719 830 c 0,26,27
 600 830 600 830 520.5 744.5 c 128,-1,28
 441 659 441 659 397 492 c 0,29,30
 372 401 372 401 372 334 c 0,31,32
 372 300 372 300 378 276 c 128,-1,33
 384 252 384 252 398.5 236.5 c 128,-1,34
 413 221 413 221 437 214 c 128,-1,35
 461 207 461 207 496 207 c 0,36,37
 615 207 615 207 694.5 293 c 128,-1,38
 774 379 774 379 819 545 c 0,39,40
 843 637 843 637 843 704 c 0,41,42
 843 757 843 757 829.5 784 c 128,-1,43
 816 811 816 811 776 824 c 1,24,25
1005 1371 m 1,44,45
 1026 1450 1026 1450 1093 1450 c 0,46,47
 1121 1450 1121 1450 1143 1442 c 128,-1,48
 1165 1434 1165 1434 1180 1420.5 c 128,-1,49
 1195 1407 1195 1407 1203 1390.5 c 128,-1,50
 1211 1374 1211 1374 1211 1355 c 0,51,52
 1211 1337 1211 1337 1205 1317 c 1,53,-1
 1205 1315 l 1,54,55
 1182 1235 1182 1235 1117 1235 c 0,56,57
 1058 1235 1058 1235 1028 1262.5 c 128,-1,58
 998 1290 998 1290 998 1328 c 0,59,60
 998 1345 998 1345 1004 1368 c 1,61,-1
 1005 1371 l 1,44,45
518 1371 m 1,62,63
 538 1450 538 1450 605 1450 c 0,64,65
 634 1450 634 1450 656 1442 c 128,-1,66
 678 1434 678 1434 692.5 1420.5 c 128,-1,67
 707 1407 707 1407 715 1390.5 c 128,-1,68
 723 1374 723 1374 723 1355 c 0,69,70
 723 1337 723 1337 717 1317 c 1,71,-1
 717 1315 l 1,72,73
 695 1235 695 1235 630 1235 c 0,74,75
 571 1235 571 1235 541 1262.5 c 128,-1,76
 511 1290 511 1290 511 1328 c 0,77,78
 511 1345 511 1345 517 1368 c 1,79,-1
 518 1371 l 1,62,63
EndSplineSet
EndChar
StartChar: oslash
Encoding: 248 248 166
Width: 993
Flags: W
LayerCount: 2
Back
Fore
SplineSet
714 1038 m 0,0,1
 724 1038 724 1038 734 1037.5 c 128,-1,2
 744 1037 744 1037 754 1036 c 1,3,4
 781 1069 781 1069 819 1069 c 0,5,6
 845 1069 845 1069 866.5 1059.5 c 128,-1,7
 888 1050 888 1050 904 1034.5 c 128,-1,8
 920 1019 920 1019 928.5 1001 c 128,-1,9
 937 983 937 983 937 967 c 1,10,11
 1046 875 1046 875 1046 704 c 0,12,13
 1046 625 1046 625 1027.5 542.5 c 128,-1,14
 1009 460 1009 460 978 384 c 128,-1,15
 947 308 947 308 907.5 243 c 128,-1,16
 868 178 868 178 825 136 c 0,17,18
 686 0 686 0 491 0 c 0,19,20
 463 0 463 0 436 3 c 1,21,22
 409 -25 409 -25 376 -25 c 0,23,24
 353 -25 353 -25 331.5 -16 c 128,-1,25
 310 -7 310 -7 294 7.5 c 128,-1,26
 278 22 278 22 268.5 38.5 c 128,-1,27
 259 55 259 55 259 71 c 2,28,-1
 259 78 l 1,29,30
 209 124 209 124 184.5 186.5 c 128,-1,31
 160 249 160 249 160 334 c 0,32,33
 160 412 160 412 178.5 494.5 c 128,-1,34
 197 577 197 577 227 653 c 128,-1,35
 257 729 257 729 297.5 794 c 128,-1,36
 338 859 338 859 381 902 c 0,37,38
 518 1038 518 1038 714 1038 c 0,0,1
680 284 m 0,39,40
 709 313 709 313 737.5 361 c 128,-1,41
 766 409 766 409 788.5 466.5 c 128,-1,42
 811 524 811 524 824.5 586 c 128,-1,43
 838 648 838 648 838 704 c 0,44,45
 838 732 838 732 834 751 c 1,46,-1
 552 213 l 1,47,48
 624 229 624 229 680 284 c 0,39,40
526 754 m 0,49,50
 496 725 496 725 468 677 c 128,-1,51
 440 629 440 629 417.5 571.5 c 128,-1,52
 395 514 395 514 381.5 452 c 128,-1,53
 368 390 368 390 368 334 c 0,54,55
 368 327 368 327 368 320.5 c 128,-1,56
 368 314 368 314 369 308 c 1,57,-1
 638 820 l 1,58,59
 574 802 574 802 526 754 c 0,49,50
EndSplineSet
EndChar
StartChar: oe
Encoding: 339 339 198
Width: 1629
Flags: W
LayerCount: 2
Back
Fore
SplineSet
1294 281 m 0,0,1
 1330 316 1330 316 1366 316 c 0,2,3
 1384 316 1384 316 1403.5 305.5 c 128,-1,4
 1423 295 1423 295 1438.5 278.5 c 128,-1,5
 1454 262 1454 262 1464.5 243 c 128,-1,6
 1475 224 1475 224 1475 206 c 0,7,8
 1475 181 1475 181 1457 155.5 c 128,-1,9
 1439 130 1439 130 1411 106.5 c 128,-1,10
 1383 83 1383 83 1350 64 c 128,-1,11
 1317 45 1317 45 1287 33 c 0,12,13
 1202 0 1202 0 1110 0 c 0,14,15
 1032 0 1032 0 971 23 c 128,-1,16
 910 46 910 46 868 88 c 0,17,18
 845 112 845 112 828 140 c 1,19,-1
 825 136 l 1,20,21
 686 0 686 0 491 0 c 0,22,23
 414 0 414 0 352.5 22.5 c 128,-1,24
 291 45 291 45 248 88 c 128,-1,25
 205 131 205 131 182.5 193.5 c 128,-1,26
 160 256 160 256 160 334 c 256,27,28
 160 412 160 412 178.5 494.5 c 128,-1,29
 197 577 197 577 227 653 c 128,-1,30
 257 729 257 729 297.5 794 c 128,-1,31
 338 859 338 859 381 902 c 0,32,33
 518 1038 518 1038 714 1038 c 0,34,35
 788 1038 788 1038 849.5 1016 c 128,-1,36
 911 994 911 994 954 950 c 1,37,38
 979 927 979 927 996 895 c 1,39,-1
 1002 901 l 2,40,41
 1139 1038 1139 1038 1333 1038 c 0,42,43
 1405 1038 1405 1038 1465.5 1016.5 c 128,-1,44
 1526 995 1526 995 1569.5 952.5 c 128,-1,45
 1613 910 1613 910 1637 848 c 128,-1,46
 1661 786 1661 786 1661 706 c 0,47,48
 1661 658 1661 658 1653.5 604.5 c 128,-1,49
 1646 551 1646 551 1629 492 c 0,50,51
 1619 454 1619 454 1593 435 c 128,-1,52
 1567 416 1567 416 1529 416 c 2,53,-1
 997 415 l 1,54,55
 994 394 994 394 992 373.5 c 128,-1,56
 990 353 990 353 990 332 c 0,57,58
 990 299 990 299 995 275.5 c 128,-1,59
 1000 252 1000 252 1014 236.5 c 128,-1,60
 1028 221 1028 221 1051 214 c 128,-1,61
 1074 207 1074 207 1110 207 c 0,62,63
 1218 207 1218 207 1294 281 c 0,0,1
771 824 m 1,64,65
 744 830 744 830 714 830 c 0,66,67
 596 830 596 830 516 744.5 c 128,-1,68
 436 659 436 659 392 492 c 0,69,70
 368 401 368 401 368 334 c 0,71,72
 368 300 368 300 373.5 276 c 128,-1,73
 379 252 379 252 393.5 236.5 c 128,-1,74
 408 221 408 221 432 214 c 128,-1,75
 456 207 456 207 491 207 c 0,76,77
 610 207 610 207 689.5 293 c 128,-1,78
 769 379 769 379 814 545 c 0,79,80
 838 637 838 637 838 704 c 0,81,82
 838 757 838 757 824.5 784 c 128,-1,83
 811 811 811 811 771 824 c 1,64,65
1148 754 m 0,84,85
 1122 729 1122 729 1100.5 696 c 128,-1,86
 1079 663 1079 663 1060 622 c 1,87,-1
 1447 622 l 1,88,89
 1451 647 1451 647 1452.5 667.5 c 128,-1,90
 1454 688 1454 688 1454 706 c 0,91,92
 1454 773 1454 773 1426.5 801.5 c 128,-1,93
 1399 830 1399 830 1333 830 c 0,94,95
 1224 830 1224 830 1148 754 c 0,84,85
EndSplineSet
EndChar
StartChar: zcaron
Encoding: 382 382 188
Width: 997
Flags: W
LayerCount: 2
Back
Fore
SplineSet
424 830 m 2,0,1
 320 830 320 830 320 934 c 256,2,3
 320 1038 320 1038 424 1038 c 2,4,-1
 1049 1038 l 2,5,6
 1153 1038 1153 1038 1153 934 c 0,7,8
 1153 886 1153 886 1115 854 c 1,9,-1
 455 207 l 1,10,-1
 824 207 l 2,11,12
 928 207 928 207 928 104 c 0,13,14
 928 0 928 0 824 0 c 2,15,-1
 201 1 l 2,16,17
 176 1 176 1 156 11.5 c 128,-1,18
 136 22 136 22 121.5 37.5 c 128,-1,19
 107 53 107 53 99.5 70.5 c 128,-1,20
 92 88 92 88 92 103 c 0,21,22
 92 121 92 121 100.5 140 c 128,-1,23
 109 159 109 159 129 178 c 2,24,-1
 794 830 l 1,25,-1
 424 830 l 2,0,1
948 1474 m 1,26,27
 987 1495 987 1495 1018 1495 c 0,28,29
 1037 1495 1037 1495 1054.5 1486 c 128,-1,30
 1072 1477 1072 1477 1086 1463 c 128,-1,31
 1100 1449 1100 1449 1107.5 1430 c 128,-1,32
 1115 1411 1115 1411 1115 1392 c 0,33,34
 1115 1349 1115 1349 1076 1311 c 1,35,-1
 888 1164 l 1,36,37
 852 1141 852 1141 821 1141 c 0,38,39
 778 1141 778 1141 743 1180 c 0,40,41
 742 1182 742 1182 714.5 1219.5 c 128,-1,42
 687 1257 687 1257 633 1332 c 1,43,44
 614 1363 614 1363 614 1394 c 0,45,46
 614 1411 614 1411 621.5 1429.5 c 128,-1,47
 629 1448 629 1448 642.5 1462.5 c 128,-1,48
 656 1477 656 1477 675 1487 c 128,-1,49
 694 1497 694 1497 716 1497 c 0,50,51
 759 1497 759 1497 800 1454 c 1,52,-1
 844 1393 l 1,53,-1
 948 1474 l 1,26,27
EndSplineSet
EndChar
StartChar: endash
Encoding: 8211 8211 179
Width: 896
Flags: W
LayerCount: 2
Back
Fore
SplineSet
187 312 m 2,0,1
 83 312 83 312 83 415 c 0,2,3
 83 519 83 519 187 519 c 2,4,-1
 701 519 l 2,5,6
 805 519 805 519 805 415 c 0,7,8
 805 312 805 312 701 312 c 2,9,-1
 187 312 l 2,0,1
EndSplineSet
EndChar
StartChar: quotesinglbase
Encoding: 8218 8218 173
Width: 396
Flags: W
LayerCount: 2
Back
Fore
SplineSet
118 140 m 2,0,1
 137 219 137 219 207 219 c 0,2,3
 264 219 264 219 293.5 191.5 c 128,-1,4
 323 164 323 164 323 127 c 0,5,6
 323 112 323 112 318 90 c 2,7,-1
 275 -87 l 1,8,9
 256 -171 256 -171 153 -229 c 0,10,11
 122 -247 122 -247 94 -247 c 0,12,13
 78 -247 78 -247 60 -237.5 c 128,-1,14
 42 -228 42 -228 28 -212 c 128,-1,15
 14 -196 14 -196 4.5 -174 c 128,-1,16
 -5 -152 -5 -152 -5 -129 c 0,17,18
 -5 -112 -5 -112 0.5 -99.5 c 128,-1,19
 6 -87 6 -87 16.5 -76.5 c 128,-1,20
 27 -66 27 -66 42 -55.5 c 128,-1,21
 57 -45 57 -45 76 -32 c 1,22,-1
 118 140 l 2,0,1
EndSplineSet
EndChar
StartChar: quotedblleft
Encoding: 8220 8220 175
Width: 806
Flags: W
LayerCount: 2
Back
Fore
SplineSet
918 1053 m 2,0,1
 899 973 899 973 827 973 c 0,2,3
 770 973 770 973 741 1001 c 128,-1,4
 712 1029 712 1029 712 1068 c 0,5,6
 712 1076 712 1076 713 1084.5 c 128,-1,7
 714 1093 714 1093 716 1102 c 2,8,-1
 761 1281 l 2,9,10
 766 1303 766 1303 774.5 1321 c 128,-1,11
 783 1339 783 1339 797.5 1356 c 128,-1,12
 812 1373 812 1373 832.5 1389 c 128,-1,13
 853 1405 853 1405 882 1422 c 0,14,15
 898 1431 898 1431 913.5 1435.5 c 128,-1,16
 929 1440 929 1440 942 1440 c 0,17,18
 959 1440 959 1440 976.5 1430 c 128,-1,19
 994 1420 994 1420 1008 1404 c 128,-1,20
 1022 1388 1022 1388 1031.5 1366.5 c 128,-1,21
 1041 1345 1041 1345 1041 1322 c 0,22,23
 1041 1273 1041 1273 982 1240 c 0,24,25
 969 1233 969 1233 959 1225 c 1,26,-1
 918 1053 l 2,0,1
471 1053 m 2,27,28
 452 973 452 973 380 973 c 0,29,30
 323 973 323 973 294 1000.5 c 128,-1,31
 265 1028 265 1028 265 1067 c 0,32,33
 265 1085 265 1085 269 1102 c 2,34,-1
 313 1281 l 1,35,36
 323 1326 323 1326 352.5 1359.5 c 128,-1,37
 382 1393 382 1393 435 1422 c 0,38,39
 468 1440 468 1440 495 1440 c 0,40,41
 512 1440 512 1440 529 1430 c 128,-1,42
 546 1420 546 1420 560.5 1404 c 128,-1,43
 575 1388 575 1388 584.5 1366.5 c 128,-1,44
 594 1345 594 1345 594 1322 c 0,45,46
 594 1273 594 1273 535 1240 c 0,47,48
 522 1233 522 1233 512 1225 c 1,49,-1
 471 1053 l 2,27,28
EndSplineSet
EndChar
StartChar: daggerdbl
Encoding: 8225 8225 214
Width: 1072
Flags: W
LayerCount: 2
Back
Fore
SplineSet
177 333 m 2,0,1
 155 333 155 333 136.5 341.5 c 128,-1,2
 118 350 118 350 103.5 364 c 128,-1,3
 89 378 89 378 81.5 397 c 128,-1,4
 74 416 74 416 74 437 c 256,5,6
 74 458 74 458 81.5 476.5 c 128,-1,7
 89 495 89 495 103 509.5 c 128,-1,8
 117 524 117 524 135.5 532 c 128,-1,9
 154 540 154 540 177 540 c 2,10,-1
 399 540 l 1,11,-1
 399 885 l 1,12,-1
 177 885 l 2,13,14
 155 885 155 885 136.5 893.5 c 128,-1,15
 118 902 118 902 103.5 916.5 c 128,-1,16
 89 931 89 931 81.5 949.5 c 128,-1,17
 74 968 74 968 74 990 c 0,18,19
 74 1010 74 1010 81.5 1029 c 128,-1,20
 89 1048 89 1048 103 1062 c 128,-1,21
 117 1076 117 1076 135.5 1084.5 c 128,-1,22
 154 1093 154 1093 177 1093 c 2,23,-1
 399 1093 l 1,24,-1
 399 1348 l 2,25,26
 399 1369 399 1369 407 1388 c 128,-1,27
 415 1407 415 1407 429 1421.5 c 128,-1,28
 443 1436 443 1436 462 1444 c 128,-1,29
 481 1452 481 1452 502 1452 c 0,30,31
 524 1452 524 1452 542.5 1444 c 128,-1,32
 561 1436 561 1436 575.5 1421.5 c 128,-1,33
 590 1407 590 1407 598 1388.5 c 128,-1,34
 606 1370 606 1370 606 1348 c 2,35,-1
 606 1093 l 1,36,-1
 872 1093 l 2,37,38
 892 1093 892 1093 911.5 1084.5 c 128,-1,39
 931 1076 931 1076 944.5 1062.5 c 128,-1,40
 958 1049 958 1049 966.5 1029.5 c 128,-1,41
 975 1010 975 1010 975 990 c 0,42,43
 975 968 975 968 966.5 949.5 c 128,-1,44
 958 931 958 931 944.5 916.5 c 128,-1,45
 931 902 931 902 911.5 893.5 c 128,-1,46
 892 885 892 885 872 885 c 2,47,-1
 606 885 l 1,48,-1
 606 540 l 1,49,-1
 872 540 l 2,50,51
 892 540 892 540 911.5 532 c 128,-1,52
 931 524 931 524 944.5 510 c 128,-1,53
 958 496 958 496 966.5 477 c 128,-1,54
 975 458 975 458 975 437 c 256,55,56
 975 416 975 416 966.5 397 c 128,-1,57
 958 378 958 378 944.5 364 c 128,-1,58
 931 350 931 350 911.5 341.5 c 128,-1,59
 892 333 892 333 872 333 c 2,60,-1
 606 333 l 1,61,-1
 606 104 l 2,62,63
 606 83 606 83 598 64 c 128,-1,64
 590 45 590 45 575.5 31 c 128,-1,65
 561 17 561 17 542.5 8.5 c 128,-1,66
 524 0 524 0 502 0 c 0,67,68
 481 0 481 0 462 8.5 c 128,-1,69
 443 17 443 17 429 31 c 128,-1,70
 415 45 415 45 407 64 c 128,-1,71
 399 83 399 83 399 104 c 2,72,-1
 399 333 l 1,73,-1
 177 333 l 2,0,1
EndSplineSet
EndChar
StartChar: bullet
Encoding: 8226 8226 178
Width: 716
Flags: W
LayerCount: 2
Back
Fore
SplineSet
461 1085 m 0,0,1
 512 1085 512 1085 555 1065 c 128,-1,2
 598 1045 598 1045 629 1009.5 c 128,-1,3
 660 974 660 974 678 926.5 c 128,-1,4
 696 879 696 879 696 824 c 0,5,6
 696 742 696 742 664.5 668 c 128,-1,7
 633 594 633 594 582.5 537 c 128,-1,8
 532 480 532 480 467 446 c 128,-1,9
 402 412 402 412 336 412 c 0,10,11
 284 412 284 412 241.5 431.5 c 128,-1,12
 199 451 199 451 167.5 486 c 128,-1,13
 136 521 136 521 118.5 569 c 128,-1,14
 101 617 101 617 101 673 c 0,15,16
 101 754 101 754 132.5 828.5 c 128,-1,17
 164 903 164 903 215 960 c 128,-1,18
 266 1017 266 1017 330.5 1051 c 128,-1,19
 395 1085 395 1085 461 1085 c 0,0,1
EndSplineSet
EndChar
StartChar: ellipsis
Encoding: 8230 8230 87
Width: 1471
Flags: W
LayerCount: 2
Back
Fore
SplineSet
322 79 m 2,0,1
 296 4 296 4 221 4 c 0,2,3
 196 4 196 4 176.5 12.5 c 128,-1,4
 157 21 157 21 144.5 34.5 c 128,-1,5
 132 48 132 48 125.5 65.5 c 128,-1,6
 119 83 119 83 119 100 c 256,7,8
 119 117 119 117 123 133 c 1,9,-1
 123 135 l 1,10,11
 151 210 151 210 224 210 c 0,12,13
 250 210 250 210 269 201.5 c 128,-1,14
 288 193 288 193 300.5 178.5 c 128,-1,15
 313 164 313 164 319 146 c 128,-1,16
 325 128 325 128 325 109 c 0,17,18
 325 102 325 102 325 95.5 c 128,-1,19
 325 89 325 89 323 82 c 2,20,-1
 322 79 l 2,0,1
813 79 m 1,21,22
 786 4 786 4 711 4 c 0,23,24
 686 4 686 4 667 12.5 c 128,-1,25
 648 21 648 21 635 34.5 c 128,-1,26
 622 48 622 48 615.5 65.5 c 128,-1,27
 609 83 609 83 609 100 c 256,28,29
 609 117 609 117 613 133 c 1,30,-1
 613 135 l 1,31,32
 642 210 642 210 714 210 c 0,33,34
 740 210 740 210 759 201.5 c 128,-1,35
 778 193 778 193 790.5 178.5 c 128,-1,36
 803 164 803 164 809.5 146 c 128,-1,37
 816 128 816 128 816 109 c 0,38,39
 816 102 816 102 816 95.5 c 128,-1,40
 816 89 816 89 814 82 c 2,41,-1
 813 79 l 1,21,22
1303 79 m 2,42,43
 1277 4 1277 4 1202 4 c 0,44,45
 1176 4 1176 4 1157 12.5 c 128,-1,46
 1138 21 1138 21 1125 34.5 c 128,-1,47
 1112 48 1112 48 1106 65.5 c 128,-1,48
 1100 83 1100 83 1100 100 c 256,49,50
 1100 117 1100 117 1104 133 c 1,51,-1
 1104 135 l 1,52,53
 1132 210 1132 210 1205 210 c 0,54,55
 1230 210 1230 210 1249.5 201.5 c 128,-1,56
 1269 193 1269 193 1281 178.5 c 128,-1,57
 1293 164 1293 164 1299.5 146 c 128,-1,58
 1306 128 1306 128 1306 109 c 0,59,60
 1306 102 1306 102 1306 95.5 c 128,-1,61
 1306 89 1306 89 1304 82 c 2,62,-1
 1303 79 l 2,42,43
EndSplineSet
EndChar
StartChar: perthousand
Encoding: 8240 8240 130
Width: 2333
Flags: W
LayerCount: 2
Back
Fore
SplineSet
1146 1396 m 2,0,1
 1177 1456 1177 1456 1227 1456 c 0,2,3
 1252 1456 1252 1456 1273.5 1447 c 128,-1,4
 1295 1438 1295 1438 1311 1423.5 c 128,-1,5
 1327 1409 1327 1409 1336 1391.5 c 128,-1,6
 1345 1374 1345 1374 1345 1358 c 0,7,8
 1345 1333 1345 1333 1329 1301 c 2,9,-1
 677 56 l 1,10,11
 647 -4 647 -4 595 -4 c 0,12,13
 570 -4 570 -4 548.5 5.5 c 128,-1,14
 527 15 527 15 511 28.5 c 128,-1,15
 495 42 495 42 486.5 59.5 c 128,-1,16
 478 77 478 77 478 93 c 0,17,18
 478 120 478 120 493 151 c 1,19,-1
 1146 1396 l 2,0,1
2077 673 m 0,20,21
 2129 673 2129 673 2171.5 653.5 c 128,-1,22
 2214 634 2214 634 2245.5 599 c 128,-1,23
 2277 564 2277 564 2294.5 516 c 128,-1,24
 2312 468 2312 468 2312 412 c 0,25,26
 2312 330 2312 330 2280 256 c 128,-1,27
 2248 182 2248 182 2197 125 c 128,-1,28
 2146 68 2146 68 2082 34 c 128,-1,29
 2018 0 2018 0 1953 0 c 0,30,31
 1900 0 1900 0 1856.5 20 c 128,-1,32
 1813 40 1813 40 1782 75.5 c 128,-1,33
 1751 111 1751 111 1734.5 158.5 c 128,-1,34
 1718 206 1718 206 1718 261 c 0,35,36
 1718 336 1718 336 1747.5 410 c 128,-1,37
 1777 484 1777 484 1827 542 c 128,-1,38
 1877 600 1877 600 1942 636.5 c 128,-1,39
 2007 673 2007 673 2077 673 c 0,20,21
2085 466 m 1,40,-1
 2077 466 l 2,41,42
 2051 466 2051 466 2024 446 c 128,-1,43
 1997 426 1997 426 1975 395.5 c 128,-1,44
 1953 365 1953 365 1939 329 c 128,-1,45
 1925 293 1925 293 1925 261 c 0,46,47
 1925 238 1925 238 1931 222.5 c 128,-1,48
 1937 207 1937 207 1953 207 c 0,49,50
 1979 207 1979 207 2006 227.5 c 128,-1,51
 2033 248 2033 248 2055 278 c 128,-1,52
 2077 308 2077 308 2091 343.5 c 128,-1,53
 2105 379 2105 379 2105 412 c 1,54,-1
 2106 412 l 1,55,56
 2106 452 2106 452 2085 466 c 1,40,-1
577 1452 m 0,57,58
 628 1452 628 1452 671 1432 c 128,-1,59
 714 1412 714 1412 745 1376.5 c 128,-1,60
 776 1341 776 1341 794 1293.5 c 128,-1,61
 812 1246 812 1246 812 1191 c 0,62,63
 812 1109 812 1109 780.5 1035 c 128,-1,64
 749 961 749 961 698.5 904 c 128,-1,65
 648 847 648 847 583 813 c 128,-1,66
 518 779 518 779 452 779 c 0,67,68
 400 779 400 779 357 799 c 128,-1,69
 314 819 314 819 283 853.5 c 128,-1,70
 252 888 252 888 234.5 936.5 c 128,-1,71
 217 985 217 985 217 1041 c 0,72,73
 217 1121 217 1121 248.5 1196 c 128,-1,74
 280 1271 280 1271 331 1328 c 128,-1,75
 382 1385 382 1385 446.5 1418.5 c 128,-1,76
 511 1452 511 1452 577 1452 c 0,57,58
585 1244 m 0,77,78
 584 1245 584 1245 577 1245 c 0,79,80
 552 1245 552 1245 525 1226 c 128,-1,81
 498 1207 498 1207 476 1177.5 c 128,-1,82
 454 1148 454 1148 439.5 1111.5 c 128,-1,83
 425 1075 425 1075 425 1041 c 0,84,85
 425 1019 425 1019 429 1004.5 c 128,-1,86
 433 990 433 990 444 987 c 1,87,-1
 452 987 l 2,88,89
 477 987 477 987 504 1005.5 c 128,-1,90
 531 1024 531 1024 553 1053.5 c 128,-1,91
 575 1083 575 1083 589.5 1119.5 c 128,-1,92
 604 1156 604 1156 604 1191 c 0,93,94
 604 1211 604 1211 600 1225.5 c 128,-1,95
 596 1240 596 1240 585 1244 c 0,77,78
1375 673 m 0,96,97
 1426 673 1426 673 1468.5 653.5 c 128,-1,98
 1511 634 1511 634 1542.5 599 c 128,-1,99
 1574 564 1574 564 1592 516 c 128,-1,100
 1610 468 1610 468 1610 412 c 0,101,102
 1610 330 1610 330 1578 256 c 128,-1,103
 1546 182 1546 182 1495 125 c 128,-1,104
 1444 68 1444 68 1379.5 34 c 128,-1,105
 1315 0 1315 0 1250 0 c 0,106,107
 1197 0 1197 0 1153.5 20 c 128,-1,108
 1110 40 1110 40 1079.5 75.5 c 128,-1,109
 1049 111 1049 111 1032 158.5 c 128,-1,110
 1015 206 1015 206 1015 261 c 0,111,112
 1015 336 1015 336 1044.5 410 c 128,-1,113
 1074 484 1074 484 1124 542 c 128,-1,114
 1174 600 1174 600 1239 636.5 c 128,-1,115
 1304 673 1304 673 1375 673 c 0,96,97
1383 466 m 1,116,-1
 1375 466 l 2,117,118
 1348 466 1348 466 1321 446 c 128,-1,119
 1294 426 1294 426 1272 395.5 c 128,-1,120
 1250 365 1250 365 1236.5 329 c 128,-1,121
 1223 293 1223 293 1223 261 c 0,122,123
 1223 238 1223 238 1228.5 222.5 c 128,-1,124
 1234 207 1234 207 1250 207 c 0,125,126
 1277 207 1277 207 1304 227.5 c 128,-1,127
 1331 248 1331 248 1353 278 c 128,-1,128
 1375 308 1375 308 1388.5 343.5 c 128,-1,129
 1402 379 1402 379 1402 412 c 1,130,-1
 1403 412 l 1,131,132
 1403 431 1403 431 1398.5 445 c 128,-1,133
 1394 459 1394 459 1383 466 c 1,116,-1
EndSplineSet
EndChar
StartChar: asterisk.001
Encoding: 65539 -1 115
Width: 1081
Flags: W
LayerCount: 2
Back
Fore
SplineSet
375 943 m 2,0,1
 271 943 271 943 271 1047 c 256,2,3
 271 1151 271 1151 375 1151 c 2,4,-1
 574 1151 l 1,5,-1
 493 1318 l 2,6,7
 479 1347 479 1347 479 1372 c 0,8,9
 479 1389 479 1389 488 1406.5 c 128,-1,10
 497 1424 497 1424 513 1438 c 128,-1,11
 529 1452 529 1452 550.5 1461.5 c 128,-1,12
 572 1471 572 1471 597 1471 c 0,13,14
 649 1471 649 1471 680 1408 c 2,15,-1
 772 1219 l 1,16,-1
 988 1435 l 2,17,18
 1024 1471 1024 1471 1059 1471 c 0,19,20
 1077 1471 1077 1471 1096.5 1461 c 128,-1,21
 1116 1451 1116 1451 1132 1434.5 c 128,-1,22
 1148 1418 1148 1418 1158 1398.5 c 128,-1,23
 1168 1379 1168 1379 1168 1361 c 0,24,25
 1168 1324 1168 1324 1132 1287 c 2,26,-1
 996 1151 l 1,27,-1
 1069 1151 l 2,28,29
 1173 1151 1173 1151 1173 1047 c 256,30,31
 1173 943 1173 943 1069 943 c 2,32,-1
 905 943 l 1,33,-1
 989 772 l 1,34,35
 1003 741 1003 741 1003 716 c 0,36,37
 1003 701 1003 701 994.5 684 c 128,-1,38
 986 667 986 667 970.5 653 c 128,-1,39
 955 639 955 639 933.5 630 c 128,-1,40
 912 621 912 621 885 621 c 0,41,42
 832 621 832 621 803 683 c 1,43,-1
 711 869 l 1,44,-1
 493 656 l 2,45,46
 456 621 456 621 420 621 c 0,47,48
 402 621 402 621 383 631.5 c 128,-1,49
 364 642 364 642 348 657.5 c 128,-1,50
 332 673 332 673 322 692 c 128,-1,51
 312 711 312 711 312 729 c 256,52,53
 312 747 312 747 320 766 c 128,-1,54
 328 785 328 785 348 804 c 2,55,-1
 490 943 l 1,56,-1
 375 943 l 2,0,1
EndSplineSet
EndChar
